<?xml version="1.0" standalone="no"?>
<!DOCTYPE svg PUBLIC "-//W3C//DTD SVG 20010904//EN"
 "http://www.w3.org/TR/2001/REC-SVG-20010904/DTD/svg10.dtd">
<svg version="1.0" xmlns="http://www.w3.org/2000/svg"
 width="1024.000000pt" height="1536.000000pt" viewBox="0 0 1024.000000 1536.000000"
 preserveAspectRatio="xMidYMid meet">

<g transform="translate(0.000000,1536.000000) scale(0.100000,-0.100000)"
fill="#000000" stroke="none">
<path d="M0 14258 l0 -1103 27 -12 c15 -7 33 -13 40 -13 7 0 13 -5 13 -11 0
-5 12 -14 28 -20 15 -5 38 -26 52 -46 14 -20 31 -43 38 -50 7 -7 10 -13 6 -13
-3 0 -1 -7 6 -15 7 -8 10 -22 6 -30 -3 -8 0 -15 6 -15 6 0 8 12 5 33 l-6 32
15 -28 c9 -16 13 -31 10 -34 -2 -3 -1 -16 4 -29 7 -18 5 -26 -8 -34 -15 -9
-15 -10 3 -8 15 2 19 -3 20 -22 0 -14 9 -30 20 -37 19 -12 19 -12 -5 -13 -21
0 -22 -2 -9 -10 26 -15 33 -60 12 -76 -17 -13 -17 -15 1 -29 17 -13 18 -15 3
-15 -9 0 -17 -5 -17 -11 0 -5 5 -7 12 -3 7 5 8 3 2 -7 -5 -8 -9 -21 -9 -29 0
-8 -6 -14 -14 -12 -9 2 -12 -4 -8 -18 3 -11 1 -18 -3 -15 -5 3 -15 -1 -23 -9
-8 -8 -17 -12 -21 -9 -3 3 -11 1 -19 -5 -7 -6 -28 -13 -47 -15 -75 -10 -131
-31 -136 -52 -7 -30 0 -801 7 -795 4 3 17 -4 30 -15 12 -11 19 -14 14 -6 -6
10 -1 12 21 7 16 -3 45 -8 64 -11 60 -10 140 -36 135 -44 -2 -5 7 -6 20 -3 14
2 33 1 42 -3 10 -5 21 -7 26 -7 4 1 7 -3 7 -8 0 -6 9 -10 20 -10 11 0 23 -7
27 -16 3 -8 11 -13 18 -10 8 3 11 -4 9 -20 -2 -18 3 -24 17 -24 22 0 24 -11 7
-28 -9 -9 -8 -12 5 -12 9 0 17 -5 17 -11 0 -5 -4 -8 -9 -5 -5 4 -6 -9 -1 -29
4 -19 6 -36 4 -38 -2 -2 6 -23 17 -47 15 -32 18 -45 9 -50 -8 -5 -9 -10 -2
-14 6 -3 9 -14 8 -24 -4 -25 13 -32 48 -17 20 9 33 23 38 42 6 25 6 26 -6 10
-9 -12 -16 -14 -21 -8 -3 6 -1 11 5 11 7 0 10 6 7 13 -3 8 -1 20 5 28 8 11 9
10 4 -4 -4 -12 -2 -17 6 -14 7 2 12 12 12 21 -1 9 2 16 7 16 5 0 9 7 9 16 0 8
-4 13 -8 10 -5 -3 -9 1 -9 9 0 8 5 11 10 8 6 -3 16 2 23 11 7 10 23 19 37 20
14 2 35 13 48 25 13 12 29 19 37 16 7 -3 26 2 43 10 16 9 29 11 29 6 0 -6 7
-8 15 -5 8 4 12 10 9 15 -3 5 1 9 8 10 7 0 4 4 -7 9 -19 8 -19 9 2 9 27 1 40
20 22 32 -13 8 -6 13 14 10 11 -2 8 14 -5 28 -11 11 -10 12 1 6 11 -6 13 -3 8
14 -6 25 10 82 27 94 8 5 8 9 0 15 -12 8 -14 52 -2 52 4 0 8 8 8 17 0 9 3 14
6 10 4 -3 1 -21 -5 -39 -11 -30 -10 -32 4 -17 11 11 16 36 16 93 0 70 3 78 22
86 12 5 18 9 12 9 -13 1 -17 59 -5 66 6 4 10 13 10 22 0 13 -3 13 -17 2 -17
-13 -17 -13 0 7 21 25 22 34 1 34 -10 0 -5 9 15 26 17 14 31 32 31 40 0 9 -3
13 -7 11 -5 -3 -14 1 -21 9 -11 12 -10 14 4 14 12 0 15 6 12 25 -3 13 -2 22 2
20 5 -3 11 2 14 11 3 8 2 13 -2 10 -4 -2 -14 -1 -22 5 -10 6 -11 9 -2 9 6 0
13 -1 15 -2 1 -2 10 4 18 12 13 11 14 20 6 37 -5 12 -14 20 -20 16 -6 -3 -7
-1 -3 5 4 7 14 12 23 12 11 0 14 7 11 25 -4 17 -1 25 9 25 8 0 11 5 8 10 -4 6
-11 8 -16 5 -5 -4 -9 -1 -9 4 0 6 5 11 10 11 6 0 10 16 10 35 0 33 1 34 28 25
22 -8 24 -8 12 2 -9 7 -16 31 -17 53 -1 23 1 30 4 15 6 -33 19 -45 26 -26 4 9
2 16 -3 16 -17 0 -11 25 10 43 19 16 18 53 -1 41 -5 -3 -9 -1 -9 4 0 6 7 12
15 16 8 3 15 11 15 18 0 9 -3 8 -10 -2 -5 -8 -10 -10 -10 -5 0 19 18 38 29 31
6 -4 9 -12 6 -17 -4 -5 1 -9 10 -9 11 0 15 5 12 15 -4 8 -2 17 4 21 6 3 14 17
19 30 7 17 15 22 27 18 15 -5 16 -4 3 5 -13 10 -13 12 0 22 13 9 12 10 -2 5
-10 -3 -20 0 -24 7 -4 7 -4 9 1 5 4 -4 16 -3 26 3 15 8 17 14 9 29 -6 12 -7
20 -1 20 5 0 11 -7 15 -15 7 -19 21 -19 41 1 13 14 14 19 3 25 -10 7 -9 9 5 9
9 0 17 -6 17 -13 0 -18 24 -67 33 -67 4 0 2 -9 -5 -20 -11 -17 -10 -23 12 -43
16 -13 24 -30 22 -41 -3 -13 0 -16 10 -11 7 5 10 5 6 0 -4 -4 -2 -15 5 -24 11
-14 10 -14 -5 -2 -16 12 -18 11 -18 -3 0 -9 5 -16 11 -16 6 0 9 -8 6 -19 -3
-12 1 -18 11 -17 12 1 16 -10 16 -49 1 -31 5 -50 13 -50 6 0 15 -4 20 -8 4 -5
2 -7 -6 -5 -7 1 -16 -3 -18 -9 -3 -7 0 -13 6 -13 6 0 15 -10 22 -22 10 -18 9
-20 -7 -14 -18 6 -18 5 0 -9 11 -8 15 -15 9 -15 -8 0 -9 -9 -3 -30 5 -16 6
-30 2 -30 -4 0 1 -5 11 -11 9 -5 17 -15 17 -22 0 -8 -3 -8 -9 1 -6 10 -10 9
-14 -7 -3 -14 -1 -19 6 -14 6 4 8 0 4 -10 -4 -11 -1 -17 8 -17 19 0 19 -14 1
-29 -18 -15 -10 -77 13 -110 18 -23 18 -27 2 -50 -15 -23 -15 -25 1 -19 25 10
28 -14 4 -35 -12 -10 -16 -16 -10 -13 7 3 15 -1 18 -10 3 -8 2 -12 -4 -9 -6 3
-10 1 -10 -4 0 -6 4 -11 9 -11 13 0 19 -46 8 -65 -6 -11 -5 -21 1 -27 6 -6 8
-17 5 -26 -4 -9 -2 -13 4 -9 7 4 10 0 8 -10 -2 -10 -4 -18 -6 -18 -1 0 -3 -10
-4 -22 -1 -13 2 -23 7 -23 5 0 6 -5 2 -11 -3 -6 0 -16 7 -21 11 -7 11 -11 1
-15 -6 -2 -9 -10 -5 -16 4 -7 9 -23 11 -37 2 -13 9 -28 15 -32 8 -5 6 -8 -6
-8 -16 0 -16 -2 -2 -29 13 -27 13 -31 -1 -45 -8 -9 -11 -16 -4 -16 7 0 8 -6 2
-17 -11 -22 -4 -46 10 -37 7 5 8 2 2 -7 -9 -15 -7 -48 6 -64 4 -5 7 -25 5 -42
-1 -18 2 -33 7 -33 4 0 8 -5 8 -11 0 -6 -7 -8 -16 -5 -13 5 -14 4 -6 -7 8 -9
8 -17 2 -25 -6 -7 -7 -10 -4 -7 7 5 33 -24 34 -37 0 -4 -6 -6 -12 -4 -7 1 -10
1 -5 -1 4 -3 5 -9 2 -14 -4 -5 1 -6 9 -3 9 3 16 1 16 -5 0 -6 -6 -11 -14 -11
-8 0 -18 -5 -22 -12 -5 -7 -2 -9 9 -5 9 3 18 0 21 -9 3 -8 0 -14 -7 -14 -8 0
-6 -4 3 -10 12 -8 12 -10 -5 -10 -11 0 -15 -3 -10 -8 12 -8 37 -84 30 -90 -3
-3 -12 1 -22 9 -14 12 -13 9 3 -15 10 -17 17 -39 16 -49 -2 -11 1 -17 7 -13 7
5 7 -2 1 -21 -12 -36 -9 -65 10 -81 9 -8 10 -11 2 -7 -10 5 -13 1 -10 -16 2
-13 8 -27 13 -31 6 -4 2 -8 -7 -8 -22 0 -24 -18 -3 -26 8 -4 15 -18 15 -33 0
-21 -2 -23 -10 -11 -8 11 -9 8 -4 -13 3 -15 7 -43 7 -62 1 -19 4 -35 8 -35 4
0 10 -7 13 -16 3 -8 2 -12 -4 -9 -11 7 -26 -42 -16 -52 3 -4 6 1 6 10 0 10 5
17 11 17 6 0 9 -6 6 -13 -3 -8 -1 -20 3 -28 5 -8 4 -19 -3 -28 -8 -10 -8 -13
-1 -8 7 4 14 -1 17 -12 3 -14 1 -18 -9 -14 -8 3 -14 0 -14 -6 0 -6 7 -11 15
-11 8 0 15 -5 15 -11 0 -5 -6 -7 -12 -3 -10 5 -10 4 -2 -5 7 -8 10 -31 7 -54
-3 -29 -2 -38 5 -28 7 10 10 4 10 -22 0 -20 3 -40 6 -46 4 -6 2 -20 -4 -31 -8
-14 -8 -20 0 -20 7 0 9 -8 5 -21 -5 -13 -3 -19 3 -15 13 8 22 -17 12 -35 -5
-8 -4 -19 2 -26 7 -9 7 -13 -1 -13 -11 0 -10 -22 4 -53 4 -10 3 -29 -4 -43
-14 -31 -14 -37 -1 -29 10 6 15 -27 12 -78 -1 -16 4 -35 12 -42 8 -8 13 -23
11 -32 -14 -68 -15 -87 -4 -73 9 12 10 11 6 -7 -3 -12 0 -24 7 -27 6 -2 3 -5
-6 -5 -15 -1 -16 -5 -6 -26 6 -14 15 -25 20 -25 4 0 8 -5 8 -11 0 -5 -4 -8 -9
-5 -10 6 -25 -43 -16 -52 3 -3 5 3 5 13 0 16 15 13 15 -3 0 -4 4 -13 9 -21 7
-11 5 -13 -8 -8 -13 5 -15 3 -8 -11 5 -9 7 -23 5 -30 -3 -7 -1 -12 4 -11 22 4
25 -2 7 -16 -14 -11 -15 -14 -4 -15 10 0 7 -7 -10 -21 -14 -11 -19 -18 -13
-14 7 3 13 1 13 -5 0 -6 6 -8 13 -4 6 4 3 -2 -7 -14 -19 -22 -10 -32 10 -12 7
7 11 6 11 -4 0 -8 -3 -15 -6 -14 -18 2 -21 -4 -11 -22 6 -11 7 -26 3 -33 -11
-18 -10 -39 4 -67 11 -21 10 -27 -5 -39 -16 -13 -16 -13 0 -8 16 6 18 0 18
-41 0 -34 -3 -43 -10 -32 -6 9 -10 10 -10 3 0 -22 12 -43 22 -37 6 4 8 -2 3
-15 -4 -13 -2 -21 5 -21 7 0 2 -9 -11 -20 -15 -12 -17 -18 -8 -14 22 7 29 -6
18 -34 -5 -14 -13 -20 -20 -16 -8 4 -9 3 -5 -5 4 -6 12 -9 17 -6 18 11 30 -5
19 -26 -7 -11 -16 -17 -23 -12 -8 4 -7 1 1 -10 8 -9 11 -20 8 -26 -3 -5 4 -7
16 -4 21 4 20 3 -4 -14 -31 -20 -35 -30 -13 -30 8 0 11 5 8 10 -3 6 -1 7 5 4
17 -11 7 -42 -13 -39 -10 2 -14 -1 -10 -7 3 -6 13 -11 20 -11 9 0 12 -6 9 -15
-4 -8 -12 -15 -20 -15 -8 0 -14 -5 -14 -11 0 -5 4 -7 10 -4 5 3 10 1 10 -5 0
-6 5 -8 11 -4 8 5 9 2 1 -12 -8 -14 -6 -26 5 -49 15 -28 15 -29 -1 -16 -9 8
-19 11 -23 7 -4 -3 2 -13 13 -21 18 -13 18 -15 2 -45 -12 -21 -13 -30 -5 -30
9 0 8 -3 -1 -8 -10 -7 -10 -15 -2 -36 14 -37 13 -46 -5 -46 -8 0 -15 -5 -15
-11 0 -5 5 -7 10 -4 13 8 13 -31 -1 -57 -9 -16 -8 -19 2 -13 9 6 11 3 6 -11
-7 -18 -6 -18 9 1 15 18 16 18 10 2 -3 -10 -6 -25 -6 -33 0 -9 -4 -13 -8 -10
-13 8 -11 -27 2 -43 8 -11 8 -15 -1 -18 -7 -3 -13 -9 -13 -14 0 -6 5 -7 11 -4
6 4 5 -2 -2 -13 -7 -12 -17 -18 -22 -15 -5 3 -7 0 -5 -8 3 -8 12 -13 19 -11 9
1 7 -3 -4 -12 -10 -8 -18 -18 -18 -23 -1 -4 -3 -10 -6 -13 -4 -3 -4 0 0 5 3 6
2 17 -4 25 -7 13 -9 12 -9 -2 0 -10 -9 -22 -21 -28 -11 -7 -18 -18 -15 -25 3
-9 0 -12 -9 -8 -9 3 -18 -4 -25 -21 -6 -16 -17 -26 -30 -26 -11 0 -20 -5 -20
-11 0 -6 -7 -8 -16 -5 -8 3 -12 2 -9 -4 3 -6 3 -15 -1 -21 -4 -8 -9 -7 -15 2
-6 10 -9 7 -9 -10 0 -16 -4 -21 -15 -17 -8 3 -15 1 -15 -4 0 -5 -7 -7 -15 -4
-8 4 -15 1 -15 -4 0 -6 -10 -14 -22 -18 -13 -4 -32 -16 -43 -28 -11 -12 -31
-22 -45 -24 -13 -1 -27 -7 -31 -14 -4 -6 -12 -7 -18 -4 -6 4 -11 4 -11 -1 0
-4 -11 -13 -25 -20 -16 -7 -23 -7 -18 -1 4 7 1 8 -8 2 -22 -13 -43 -14 -51 -1
-6 9 -8 8 -8 -2 0 -7 -6 -11 -15 -7 -8 3 -15 1 -15 -4 0 -5 -18 -8 -40 -7 -22
1 -40 5 -40 9 0 4 -11 8 -25 8 -14 0 -28 7 -31 15 -4 8 -10 15 -16 15 -5 0 -6
-4 -3 -10 9 -14 -7 -12 -27 4 -10 7 -18 19 -18 27 0 10 -3 10 -12 1 -15 -15
-28 -16 -28 -2 0 16 -40 51 -60 53 -15 1 -17 4 -7 16 9 12 9 13 -1 7 -6 -4
-12 -2 -12 3 0 6 -7 11 -15 11 -8 0 -15 9 -15 20 0 11 -5 20 -11 20 -5 0 -7
-4 -4 -10 3 -5 2 -10 -3 -10 -5 0 -9 13 -10 28 -1 43 -6 56 -22 64 -11 5 -10
7 5 7 16 1 17 3 6 10 -8 5 -16 18 -18 28 -6 33 -6 141 1 151 3 6 2 12 -3 14
-6 2 -7 17 -2 40 9 38 7 150 -2 201 -3 16 -1 27 6 27 8 0 8 3 0 11 -13 13 -5
81 11 91 7 5 4 8 -6 8 -20 0 -24 15 -8 25 13 8 13 45 0 45 -7 0 -7 6 -1 18 14
26 14 34 0 43 -10 6 -10 11 -1 22 7 7 9 17 5 20 -3 4 -1 7 7 7 9 0 10 3 1 13
-6 8 -7 17 -3 21 4 4 -1 13 -11 21 -15 11 -15 14 -3 18 10 4 14 16 11 36 -2
22 0 28 10 25 15 -6 15 -2 15 79 -1 32 3 47 10 42 7 -4 8 6 4 32 -3 21 -5 49
-4 63 1 14 2 32 2 40 1 8 6 21 12 29 8 11 8 13 -2 7 -10 -6 -11 5 -6 50 6 47
5 56 -7 50 -8 -4 -6 -1 4 7 13 11 15 17 6 23 -9 5 -7 11 6 21 16 11 16 13 3
13 -17 0 -31 67 -16 76 4 3 4 14 -2 24 -7 13 -6 20 3 23 9 4 8 8 -3 16 -12 9
-13 13 -2 20 11 6 10 11 -3 25 -9 9 -12 16 -6 16 7 0 7 8 1 26 -6 14 -8 29 -6
32 2 4 -4 25 -15 46 -10 22 -17 42 -14 44 3 3 5 0 5 -6 0 -7 7 -12 15 -12 20
0 19 6 -4 29 -13 13 -18 29 -15 46 3 20 1 25 -8 19 -10 -5 -11 -4 -1 7 7 7 13
19 13 27 0 18 -26 43 -36 34 -5 -4 -3 0 4 9 8 11 8 19 1 26 -8 8 -7 13 2 18 8
5 10 4 5 -3 -4 -7 -2 -12 3 -12 20 0 11 20 -11 30 -18 7 -19 9 -5 9 14 1 16 6
11 27 -5 20 -4 25 5 19 9 -5 10 -2 2 11 -5 11 -12 27 -15 37 -4 12 -10 15 -18
11 -7 -5 -5 4 5 19 9 15 13 27 8 27 -6 0 -8 6 -5 14 3 8 0 17 -6 21 -8 5 -5
12 7 22 17 14 17 14 0 9 -15 -5 -16 -2 -7 13 7 14 6 21 -3 25 -9 5 -9 7 1 12
6 3 12 12 12 20 0 8 -6 14 -12 14 -10 0 -10 2 0 9 11 6 10 10 -3 15 -14 5 -15
9 -6 20 15 18 24 99 11 91 -6 -4 -7 -11 -4 -17 4 -7 2 -8 -5 -4 -9 6 -7 16 7
41 21 35 15 62 -12 52 -12 -5 -16 0 -16 19 0 14 -4 22 -10 19 -5 -3 -10 1 -10
10 0 9 -4 14 -9 10 -5 -3 -12 -1 -16 4 -3 5 -14 8 -25 6 -14 -3 -20 2 -20 13
0 10 -3 13 -8 7 -13 -19 -31 -15 -27 5 2 12 0 18 -5 15 -4 -3 -10 -2 -13 2 -2
5 -2 2 -1 -4 5 -19 -10 -16 -30 6 -13 14 -14 20 -5 23 8 3 9 9 4 17 -5 10 -13
3 -25 -23 -9 -20 -19 -33 -23 -30 -4 4 -10 -2 -14 -12 -8 -23 -28 -44 -40 -44
-5 0 -18 -7 -29 -16 -10 -8 -14 -13 -8 -10 7 3 14 -1 17 -9 4 -10 1 -12 -10
-8 -12 5 -15 2 -10 -10 3 -9 1 -19 -5 -23 -7 -4 -8 -3 -4 4 4 7 2 12 -4 12 -6
0 -13 -14 -17 -31 -4 -19 -10 -28 -19 -25 -7 3 -16 1 -19 -4 -4 -6 2 -10 12
-10 15 0 15 -2 3 -9 -8 -6 -19 -7 -25 -3 -5 3 -3 -3 5 -13 11 -14 11 -17 1
-11 -11 7 -12 -3 -7 -50 3 -32 10 -60 16 -62 5 -2 10 -8 10 -14 0 -6 -9 -3
-20 7 -11 10 -22 16 -25 13 -8 -7 5 -38 16 -38 5 0 9 -5 9 -11 0 -5 -5 -7 -12
-3 -8 5 -9 2 -5 -9 3 -9 2 -19 -4 -23 -6 -3 -8 -13 -5 -21 4 -9 2 -11 -6 -7
-8 5 -9 2 -5 -10 6 -14 3 -17 -9 -12 -11 4 -15 2 -11 -8 3 -8 -3 -22 -13 -31
-14 -13 -19 -13 -23 -3 -4 10 -6 10 -6 0 -1 -7 10 -18 24 -24 14 -6 25 -15 25
-19 0 -8 -30 -20 -66 -28 -4 0 -2 -7 4 -14 22 -26 -10 -131 -33 -109 -4 4 -2
-4 5 -17 6 -13 8 -21 3 -18 -5 3 -14 -3 -21 -13 -9 -14 -8 -21 3 -30 15 -12
20 -4 16 23 0 4 5 7 12 7 8 0 14 -7 14 -15 0 -8 -2 -13 -5 -10 -3 2 -13 -7
-24 -20 -11 -14 -26 -25 -33 -25 -8 0 -17 -4 -20 -10 -4 -6 1 -7 11 -3 14 5
16 2 10 -21 -4 -17 -3 -25 3 -22 5 4 13 2 16 -4 4 -6 1 -9 -6 -8 -7 2 -19 -10
-27 -25 -9 -19 -19 -26 -29 -23 -13 6 -13 3 1 -19 9 -14 12 -25 7 -25 -6 0 -8
-6 -5 -14 3 -8 1 -17 -5 -21 -8 -4 -8 -12 -1 -25 9 -16 7 -18 -10 -15 -11 2
-20 0 -20 -6 0 -5 4 -9 8 -9 4 0 8 -10 9 -22 3 -42 26 -98 37 -91 6 4 2 -3 -8
-15 -11 -12 -14 -22 -8 -22 13 0 12 -42 -3 -53 -6 -5 -2 -6 9 -3 15 5 18 2 14
-18 -4 -22 -3 -24 13 -15 15 7 17 6 13 -6 -4 -8 -11 -15 -17 -15 -5 0 -3 -8 5
-17 9 -10 20 -31 26 -48 6 -16 11 -24 11 -17 2 23 19 12 24 -17 3 -16 14 -37
24 -46 10 -11 16 -29 14 -47 -1 -18 3 -30 13 -34 9 -3 15 -16 14 -30 -1 -12
-4 -21 -6 -19 -3 2 -11 -2 -19 -10 -11 -12 -12 -19 -2 -37 11 -21 11 -22 -4
-10 -14 12 -16 11 -14 -15 1 -18 -2 -27 -10 -26 -17 4 -17 -9 0 -26 10 -11 8
-11 -11 -2 -28 15 -62 -1 -62 -29 0 -11 -4 -20 -10 -20 -5 0 -10 7 -10 15 0 8
-5 15 -11 15 -7 0 -6 -8 4 -23 14 -22 14 -23 -26 -24 -26 -1 -46 -8 -54 -19
-7 -10 -13 -13 -13 -6 0 10 -5 10 -20 2 -20 -11 -20 -21 -20 -4465 l0 -4455
1845 0 c1015 0 1845 4 1845 8 0 5 -35 161 -79 348 -43 186 -98 427 -121 534
-23 107 -61 278 -86 380 -48 204 -57 248 -108 525 -86 462 -150 1031 -180
1590 -36 655 -40 867 -26 1201 7 175 14 382 16 459 4 148 18 264 39 305 18 37
35 205 46 455 5 121 13 258 19 305 5 47 12 135 15 195 4 61 8 126 11 145 2 19
6 166 9 327 4 215 11 331 26 440 31 228 53 346 65 350 7 2 13 -40 18 -127 8
-159 51 -359 100 -469 19 -42 71 -159 116 -261 117 -264 230 -485 284 -556 39
-52 59 -68 129 -103 58 -30 74 -35 55 -19 -22 20 -33 44 -55 126 -2 6 -4 18
-6 25 -1 6 -6 18 -10 25 -5 6 -5 12 -1 12 3 0 1 6 -5 14 -14 17 -20 44 -26
115 -3 29 -10 72 -16 95 -6 22 -12 46 -13 51 -1 6 -7 20 -14 31 -9 18 -9 24 3
34 8 6 18 9 24 6 5 -3 8 2 6 11 -2 10 -4 20 -4 22 -1 3 -8 -4 -16 -15 -9 -12
-14 -14 -15 -6 0 8 -5 10 -13 6 -6 -4 -5 1 5 11 12 13 23 16 45 10 42 -12 47
-12 60 5 9 11 9 17 0 22 -9 6 -9 8 0 8 13 0 43 -27 43 -40 0 -5 -6 -11 -12
-13 -8 -4 -7 -6 4 -6 9 -1 18 -6 20 -13 3 -8 9 -8 24 1 18 12 18 12 0 7 -16
-6 -17 -4 -6 9 14 17 39 20 41 5 1 -5 2 -14 3 -19 0 -5 5 -13 10 -18 5 -5 6
-2 1 6 -6 10 -4 12 4 7 7 -5 10 -14 7 -22 -3 -8 1 -14 10 -14 11 0 13 6 8 22
-5 17 3 12 33 -19 35 -36 41 -39 52 -24 6 9 9 10 6 4 -4 -8 1 -13 12 -13 24
-1 53 -24 53 -43 0 -12 10 -15 54 -12 30 2 60 6 65 10 6 3 11 -1 11 -11 0 -13
3 -14 15 -4 8 7 12 17 9 24 -3 6 3 1 15 -12 19 -22 20 -22 26 -2 6 18 24 26
50 20 37 -7 65 -7 60 0 -3 4 2 11 11 14 10 4 13 2 8 -6 -5 -8 -2 -9 10 -5 10
4 25 3 35 -2 13 -7 18 -6 18 5 0 7 -4 14 -9 14 -5 0 -6 5 -2 11 6 10 54 6 90
-8 8 -3 14 0 14 7 0 6 -5 8 -10 5 -6 -3 -10 4 -10 17 0 13 -7 32 -15 42 -8 10
-12 22 -10 26 2 3 -23 35 -56 69 -32 34 -59 65 -59 68 0 3 -12 22 -27 41 -23
30 -27 47 -29 109 -2 40 1 73 6 73 5 0 7 10 5 21 -3 12 -2 19 1 16 3 -2 19 8
37 24 17 16 50 41 74 56 24 15 43 31 43 36 0 4 5 5 10 2 6 -3 10 -2 10 3 0 5
6 9 13 10 44 5 77 16 77 24 0 5 4 7 9 4 5 -3 12 1 15 10 3 8 10 12 16 9 5 -3
10 -2 10 2 0 5 10 9 22 10 11 1 24 6 27 10 3 5 15 9 26 8 11 0 54 16 95 36 41
20 89 40 105 45 20 7 29 16 27 27 -2 9 2 17 8 17 6 0 8 -4 5 -10 -13 -21 15
-9 41 18 15 15 22 19 15 10 -19 -26 9 -24 43 3 14 11 26 18 26 14 0 -7 57 23
83 44 14 12 17 12 17 0 0 -8 6 -3 13 11 7 14 21 24 31 24 9 -1 29 9 43 22 15
14 32 23 38 21 6 -3 23 8 39 24 16 16 33 26 37 23 5 -3 6 3 2 12 -4 12 -3 15
5 10 16 -10 43 19 36 37 -4 11 2 14 21 12 17 -2 29 3 36 16 5 11 14 17 20 14
5 -4 9 -1 9 6 0 6 14 25 30 41 17 16 28 33 24 39 -3 6 0 9 8 7 14 -3 58 36 58
51 0 6 -4 13 -10 16 -6 3 -7 -1 -4 -9 3 -9 1 -16 -5 -16 -6 0 -11 8 -11 18 0
10 -7 27 -16 38 -15 19 -16 19 -9 -1 15 -45 17 -75 6 -75 -6 0 -11 11 -11 24
0 13 -7 26 -15 30 -13 5 -14 2 -4 -15 9 -17 8 -23 -2 -30 -8 -5 -11 -9 -7 -9
5 0 -1 -9 -13 -21 -15 -15 -24 -18 -33 -10 -11 9 -12 5 -9 -16 4 -22 2 -25 -6
-13 -9 13 -11 12 -11 -5 -1 -20 -1 -20 -15 -1 -14 19 -15 19 -15 -7 0 -30 -11
-35 -30 -12 -9 11 -15 13 -20 5 -8 -13 -50 48 -50 73 0 9 -5 19 -12 23 -8 5
-9 0 -5 -17 4 -13 10 -41 13 -61 6 -32 4 -38 -11 -38 -11 0 -15 5 -11 15 3 9
0 15 -8 15 -8 0 -21 12 -31 26 -9 14 -19 23 -22 20 -3 -3 0 -12 7 -21 8 -10 9
-15 1 -15 -6 0 -11 -12 -11 -26 0 -22 -2 -24 -15 -14 -16 13 -45 7 -45 -9 0
-6 6 -8 13 -5 8 3 14 -1 15 -8 1 -7 4 -26 8 -42 6 -24 4 -28 -8 -23 -12 4 -15
0 -12 -16 4 -20 4 -20 -6 1 -5 13 -8 27 -5 31 2 5 -5 26 -16 47 -16 30 -20 33
-15 12 8 -33 -12 -48 -31 -23 -12 17 -13 16 -13 -12 0 -18 4 -34 10 -38 5 -3
6 -13 3 -21 -11 -29 -24 3 -24 60 0 31 -5 56 -10 56 -5 0 -8 -3 -8 -7 4 -24
-2 -75 -8 -70 -10 11 -33 -14 -34 -37 -1 -17 -2 -18 -6 -3 -2 9 -8 15 -13 12
-4 -3 -6 -15 -3 -28 3 -12 3 -19 -1 -16 -4 3 -10 26 -15 50 -8 40 -10 42 -17
20 -7 -23 -8 -24 -15 -5 -6 18 -8 17 -17 -6 -8 -18 -11 -20 -11 -7 -1 9 -5 17
-11 17 -5 0 -14 -8 -19 -17 -9 -16 -10 -16 -11 5 0 27 -8 28 -27 5 -13 -16
-13 -16 -7 7 l6 25 -22 -23 c-23 -25 -41 -23 -21 2 7 8 11 23 8 33 -4 14 -5
14 -6 -4 0 -12 -5 -25 -11 -28 -5 -3 -10 -21 -10 -40 0 -45 -16 -53 -24 -12
l-7 32 -14 -25 c-9 -15 -15 -19 -15 -10 0 12 -4 11 -15 -4 -14 -18 -15 -17
-16 25 -1 33 -3 38 -8 20 -7 -25 -31 -42 -31 -22 0 16 4 26 10 24 3 -1 6 6 6
15 0 9 4 28 8 41 6 16 5 21 -3 17 -6 -4 -11 -14 -11 -22 0 -8 -4 -14 -10 -14
-5 0 -10 -9 -10 -20 0 -11 -4 -20 -9 -20 -5 0 -14 -12 -20 -27 -10 -26 -10
-26 -5 8 4 22 1 39 -5 43 -7 5 -11 -4 -11 -25 0 -27 -2 -30 -15 -19 -12 10
-15 10 -15 -4 0 -9 -5 -16 -11 -16 -6 0 -8 9 -3 23 17 53 16 53 6 38 -8 -11
-10 -11 -15 0 -4 9 -6 7 -7 -6 -1 -11 -2 -23 -1 -27 0 -5 -3 -8 -8 -8 -12 0
-6 60 6 69 14 8 24 53 11 49 -5 -2 -9 -8 -9 -13 0 -6 -10 -20 -21 -32 -12 -13
-16 -23 -10 -23 7 0 9 -7 5 -17 -6 -15 -8 -14 -16 5 -11 24 -33 31 -23 7 3 -8
1 -15 -4 -15 -14 0 -12 24 2 38 9 9 9 12 1 12 -7 0 -15 -9 -18 -20 -4 -11 -17
-32 -30 -46 -21 -23 -23 -23 -18 -4 4 15 2 19 -10 14 -14 -5 -15 -1 -7 28 13
44 13 48 -5 48 -10 0 -15 -10 -15 -31 0 -20 -4 -29 -12 -26 -7 2 -12 10 -10
17 2 10 -1 10 -14 -1 -16 -13 -17 -12 -10 15 l7 30 -20 -25 c-28 -34 -26 -18
8 51 16 32 27 61 23 64 -12 13 -29 5 -45 -23 -23 -39 -22 -49 3 -21 31 35 24
15 -14 -41 -32 -48 -34 -50 -41 -27 -11 32 -8 79 4 91 20 20 11 26 -16 11 -37
-18 -39 -18 -40 9 0 12 1 16 4 9 7 -17 23 -5 23 18 0 10 5 20 11 22 6 2 17 20
24 40 l12 37 -23 -16 c-23 -14 -36 -41 -14 -28 19 12 10 -12 -12 -31 -12 -10
-18 -13 -14 -6 4 6 2 12 -4 12 -6 0 -13 -6 -16 -14 -3 -7 -16 -13 -29 -13 -21
0 -23 2 -14 18 5 11 7 19 3 19 -4 0 0 8 8 18 8 9 18 26 22 36 6 19 6 19 -12 3
-10 -9 -21 -15 -24 -12 -3 3 -11 -1 -18 -10 -7 -8 -17 -15 -22 -15 -5 0 1 10
12 22 15 16 17 24 8 27 -6 2 -14 -1 -16 -7 -6 -18 -32 -14 -32 4 0 13 -3 14
-13 5 -8 -6 -16 -9 -19 -6 -3 3 -11 -1 -18 -10 -7 -8 -23 -15 -36 -15 -24 0
-24 0 -7 27 12 18 13 24 4 19 -17 -11 -35 15 -18 27 7 5 2 7 -13 5 -21 -3 -25
1 -24 23 1 23 -2 27 -27 25 -16 -1 -31 4 -33 11 -3 7 1 13 9 13 11 0 8 10 -10
36 -14 20 -25 45 -25 55 0 11 -5 19 -11 19 -8 0 -9 14 -5 43 4 26 3 37 -3 28
-15 -23 -26 6 -30 83 -1 12 -6 16 -17 12 -27 -10 -36 4 -19 31 l16 24 -28 -18
c-28 -17 -28 -17 -13 2 21 28 32 35 58 35 12 0 22 5 22 10 0 11 -32 9 -63 -5
-10 -4 -23 -2 -32 5 -24 20 -18 28 20 26 33 -1 34 0 30 29 -2 16 -6 37 -10 46
-4 10 0 19 9 22 9 4 16 12 16 18 0 8 -5 7 -17 -2 -15 -13 -16 -11 -9 14 4 17
3 26 -3 23 -16 -10 -40 5 -34 21 5 12 1 11 -16 -3 -20 -17 -20 -20 -5 -31 9
-7 21 -10 25 -7 11 6 0 -26 -15 -45 -9 -11 -7 -13 13 -6 16 5 22 3 19 -5 -2
-6 -8 -12 -13 -12 -19 0 -45 -19 -44 -31 0 -9 2 -9 6 1 7 17 30 15 37 -4 5
-12 2 -15 -10 -10 -9 4 -24 1 -32 -6 -11 -9 -14 -9 -9 -1 4 6 3 14 -2 18 -6 3
-8 12 -4 20 3 8 0 15 -6 15 -6 0 -11 5 -11 11 0 6 -18 28 -40 49 -27 26 -33
36 -20 33 11 -3 20 -9 20 -14 0 -5 5 -9 10 -9 19 0 10 17 -16 28 -14 7 -22 17
-19 22 9 15 -2 12 -19 -5 -13 -13 -15 -11 -21 15 -7 31 -25 42 -25 15 0 -8 -7
-15 -15 -15 -8 0 -15 7 -15 15 0 21 -1 22 -46 72 -25 27 -41 55 -41 69 0 14
-7 30 -16 37 -22 17 -69 106 -62 117 3 6 0 10 -7 10 -8 0 -20 21 -27 53 -17
65 -24 247 -10 247 6 0 8 9 4 20 -4 14 2 27 20 44 15 14 24 29 21 35 -3 5 -1
11 4 13 6 2 12 10 13 18 2 8 6 21 11 29 5 8 4 16 -5 22 -11 6 -10 9 4 15 23 9
22 24 -3 24 -11 0 -20 5 -20 10 0 6 3 9 8 9 21 -4 18 4 -16 37 -33 33 -35 36
-12 29 l25 -7 -24 21 c-13 11 -30 21 -36 21 -13 0 -28 35 -26 57 1 7 -6 27
-16 45 -9 18 -16 39 -14 47 1 7 -2 10 -8 7 -6 -4 -9 5 -6 24 2 16 -1 32 -6 35
-5 4 -9 1 -9 -4 0 -6 -4 -11 -9 -11 -19 0 -19 75 0 110 l20 35 -31 -35 c-19
-23 -28 -28 -24 -15 4 11 12 26 18 34 8 11 8 15 -2 19 -10 3 -10 7 -1 19 10
12 10 16 -2 24 -11 7 -10 9 6 10 11 0 14 3 8 6 -19 7 -16 31 6 42 17 9 28 39
36 98 3 20 1 21 -15 13 -27 -15 -30 -13 -21 12 6 17 4 26 -8 34 -12 10 -13 15
-3 27 11 13 10 17 -4 25 -17 9 -16 13 9 45 29 38 34 53 15 41 -14 -9 -68 -11
-68 -3 0 4 10 14 23 23 21 16 22 16 1 11 -31 -8 -39 20 -11 41 l22 16 -22 -7
c-14 -4 -23 -2 -23 4 0 6 5 11 10 11 6 0 10 6 10 14 0 8 8 17 18 21 16 6 16 7
-1 17 -17 9 -15 12 15 27 29 15 35 15 45 3 11 -13 13 -13 19 1 3 9 12 13 20
10 8 -3 12 -9 9 -13 -3 -5 -1 -11 4 -14 5 -4 12 2 14 11 4 15 5 16 6 2 1 -18
41 -28 119 -31 47 -2 59 -18 12 -18 -16 0 -30 -4 -30 -8 0 -5 18 -7 41 -5 27
3 39 1 34 -6 -11 -18 146 -10 235 12 26 7 110 46 110 52 0 2 -16 3 -35 0 -31
-4 -37 -1 -47 20 -12 27 -31 35 -22 10 5 -11 -1 -15 -17 -15 -19 0 -21 2 -9
10 11 7 7 10 -17 10 -21 0 -33 5 -33 14 0 9 -8 12 -24 9 -21 -4 -24 -2 -19 17
3 12 9 17 12 12 3 -5 17 -8 31 -6 14 1 33 3 43 3 10 1 16 5 12 11 -3 5 -12 7
-20 3 -8 -3 -23 -2 -32 2 -10 5 -28 7 -40 6 -17 -2 -21 2 -17 13 3 9 9 16 13
17 3 0 47 2 96 3 156 5 155 5 155 21 0 18 16 20 23 3 4 -8 6 -9 6 -2 1 6 -6
17 -14 24 -11 9 -15 9 -15 1 0 -7 -4 -10 -9 -6 -5 3 -13 0 -17 -6 -5 -8 -3 -9
6 -4 9 6 11 4 6 -4 -6 -9 -13 -8 -27 5 -11 10 -19 12 -19 6 0 -17 -37 -15 -44
3 -3 8 -12 15 -21 15 -8 0 -15 -7 -15 -15 0 -19 -3 -19 -42 5 -18 11 -42 20
-53 20 -11 1 -31 7 -45 15 -31 18 -16 18 79 1 104 -19 209 -4 246 34 28 30 50
100 40 131 -8 24 -1 24 27 2 42 -35 68 -66 68 -84 0 -10 5 -21 10 -24 18 -11
10 -25 -17 -31 -61 -13 -93 -26 -87 -35 3 -5 9 -7 13 -5 16 10 61 14 61 6 0
-5 9 -7 20 -5 11 2 20 0 20 -4 0 -4 10 -13 23 -20 18 -9 19 -10 2 -6 -11 2
-31 -4 -45 -16 -23 -19 -18 -20 23 -4 6 3 17 -6 24 -20 6 -14 7 -25 3 -25 -5
0 -10 6 -12 12 -5 15 -88 -35 -88 -53 0 -6 12 -1 26 10 37 29 52 26 20 -4 -15
-14 -31 -25 -35 -25 -5 0 -11 -9 -14 -20 -3 -14 -1 -18 6 -13 31 20 65 10 46
-13 -9 -11 -9 -18 -1 -26 9 -9 12 -9 12 0 0 7 7 9 17 5 12 -5 15 -2 10 9 -3 9
1 24 9 35 12 16 13 14 9 -24 -3 -23 0 -45 6 -48 5 -4 7 -16 3 -27 -5 -16 -3
-19 14 -14 14 5 21 1 25 -14 3 -11 2 -20 -3 -20 -4 0 -6 -11 -5 -25 2 -14 -1
-25 -6 -25 -5 0 -8 -3 -7 -7 1 -5 -4 -18 -11 -31 -7 -13 -10 -30 -7 -38 3 -8
2 -13 -3 -10 -5 3 -12 -11 -16 -32 -4 -20 -10 -41 -15 -47 -5 -5 -9 -21 -9
-35 -2 -35 -3 -111 -1 -133 1 -9 -6 -24 -14 -33 -15 -14 -20 -28 -17 -46 0 -5
-3 -8 -9 -8 -5 0 -10 -7 -10 -16 0 -8 -7 -22 -16 -31 -8 -9 -13 -22 -9 -31 3
-8 -2 -23 -11 -33 -10 -11 -13 -19 -9 -19 4 0 2 -8 -6 -17 -8 -10 -16 -31 -18
-48 -1 -16 -9 -37 -16 -45 -17 -19 -22 -51 -11 -69 6 -9 5 -12 -2 -7 -6 3 -13
-6 -17 -24 -4 -19 -13 -30 -23 -30 -14 0 -14 -2 -3 -9 8 -5 10 -14 6 -22 -5
-7 -10 -28 -11 -47 -1 -19 -8 -38 -14 -42 -9 -6 -9 -9 -1 -11 7 -3 3 -11 -9
-21 -11 -10 -20 -13 -20 -7 0 6 -6 9 -14 6 -8 -3 -17 -1 -20 6 -3 9 -5 9 -5 0
-1 -7 -7 -10 -15 -7 -8 3 -17 1 -21 -5 -3 -6 -21 -11 -38 -11 -27 1 -29 2 -14
11 9 5 22 7 27 4 5 -3 7 0 4 8 -2 7 -11 14 -19 14 -8 0 -12 -4 -9 -9 10 -16
-16 -8 -36 12 -23 23 -17 46 13 56 21 7 20 8 -8 19 -24 10 -33 10 -50 -1 -12
-8 -25 -11 -28 -7 -4 3 -7 1 -7 -6 0 -8 -8 -11 -20 -8 -12 3 -34 -4 -54 -18
-19 -13 -43 -26 -55 -30 -12 -3 -26 -15 -32 -26 -5 -11 -14 -17 -19 -14 -16
10 -20 -13 -4 -29 14 -15 14 -16 -3 -16 -17 -1 -17 -2 -1 -13 13 -10 16 -23
12 -53 -11 -77 -4 -178 13 -194 14 -13 15 -13 10 1 -3 9 -1 22 4 30 8 12 10
12 18 0 10 -15 26 3 16 18 -3 5 -1 12 5 16 6 4 10 -5 10 -20 0 -16 4 -24 11
-20 6 4 8 13 5 20 -3 8 5 15 20 18 21 4 24 1 18 -16 -4 -13 -2 -17 5 -13 6 4
11 3 11 -3 0 -5 11 -8 25 -5 26 5 37 -20 12 -29 -7 -3 -5 -6 6 -6 9 -1 17 -6
17 -12 0 -5 4 -8 9 -5 5 4 12 -7 16 -24 4 -16 19 -43 35 -60 16 -17 29 -32 29
-33 -1 -16 17 -37 31 -37 11 0 22 -4 25 -10 4 -6 -1 -7 -12 -4 -17 5 -17 5 0
-9 10 -8 19 -19 19 -24 2 -17 23 -43 35 -43 7 0 13 -10 13 -21 0 -16 5 -20 18
-17 15 4 18 0 16 -18 -1 -13 2 -24 8 -24 6 0 8 -9 5 -20 -3 -11 -1 -17 4 -14
16 9 22 -26 10 -53 -11 -23 -10 -25 3 -13 18 14 20 8 7 -18 -5 -9 -14 -30 -21
-47 -7 -16 -17 -38 -22 -48 -12 -25 -3 -33 17 -17 11 9 14 22 10 37 -3 13 -1
23 5 23 5 0 10 8 10 17 0 22 10 11 15 -17 2 -12 -2 -32 -10 -44 -13 -20 -13
-23 0 -23 8 0 11 5 8 10 -4 6 0 8 9 4 12 -4 14 -1 11 14 -4 13 0 19 11 19 10
0 14 -4 11 -10 -3 -5 -1 -10 4 -10 6 0 11 9 11 20 0 11 5 20 10 20 12 0 9 -32
-3 -41 -8 -6 21 -69 38 -81 5 -4 13 0 17 10 5 14 7 13 7 -6 1 -16 -4 -22 -15
-20 -9 2 -20 -7 -25 -19 -6 -17 -5 -23 5 -23 8 0 17 -6 19 -12 4 -8 6 -7 6 4
1 11 7 15 21 11 11 -3 20 -9 20 -14 0 -5 -8 -6 -17 -3 -15 5 -16 4 -3 -5 8 -5
25 -8 37 -4 14 3 23 1 23 -6 0 -7 11 -9 30 -6 22 4 30 1 30 -10 0 -8 5 -15 10
-15 6 0 10 5 10 10 0 7 7 7 21 -1 25 -13 41 3 31 29 -3 10 -1 13 6 8 7 -4 12
-1 12 7 0 8 7 18 16 21 12 5 11 -2 -6 -29 -12 -19 -17 -35 -11 -35 5 0 12 8
15 18 6 18 56 71 56 59 0 -3 -4 -17 -10 -31 -10 -28 -2 -34 19 -13 11 9 14 9
18 0 3 -9 10 -9 28 3 20 13 22 19 12 35 -11 18 -12 18 -21 -4 -9 -21 -9 -21
-14 -2 -3 12 3 24 17 33 28 19 26 30 -6 34 -22 2 -29 9 -33 33 l-6 30 -6 -31
c-10 -45 -37 -52 -45 -13 -4 23 -8 27 -15 17 -8 -11 -10 -11 -15 0 -4 10 -8 9
-17 -4 -12 -16 -13 -16 -19 0 -4 9 -3 15 1 13 4 -3 13 1 20 9 13 15 6 19 -25
15 -12 -2 -17 11 -14 32 0 4 -4 7 -10 7 -6 0 -9 6 -7 12 3 7 -1 19 -9 26 -17
17 -17 35 0 27 6 -4 4 0 -6 8 -10 9 -14 18 -8 21 5 3 11 1 13 -6 3 -8 14 -2
31 16 15 16 27 23 27 17 0 -7 6 -11 13 -8 6 2 26 -2 43 -9 18 -7 45 -12 62
-10 17 3 47 -2 69 -9 46 -16 56 -12 41 20 -6 13 -14 22 -19 20 -4 -3 -9 1 -12
7 -3 9 -10 7 -22 -7 -13 -16 -16 -17 -11 -3 3 10 -2 24 -10 33 -9 8 -11 15 -5
15 6 0 11 7 11 15 0 8 -7 15 -15 15 -9 0 -12 6 -9 15 7 18 44 20 44 3 0 -6 6
-4 14 7 8 11 26 18 50 19 20 1 36 4 36 8 0 3 39 4 88 1 180 -10 280 -7 293 10
3 4 34 10 70 13 73 6 91 8 209 24 133 17 144 18 161 9 11 -6 35 1 75 23 33 17
61 35 64 39 5 7 66 21 83 19 4 0 21 7 37 15 17 9 30 13 30 9 0 -4 6 -1 13 5 8
6 17 8 20 4 4 -3 7 -1 7 5 0 7 -4 12 -9 12 -8 0 -24 37 -22 52 1 10 -43 0 -47
-11 -2 -6 -12 -7 -28 -1 -20 8 -27 5 -40 -15 -9 -14 -20 -25 -26 -25 -5 0 -21
-9 -36 -20 -19 -13 -50 -21 -102 -26 -41 -3 -82 -6 -91 -7 -17 -1 -20 -28 -4
-39 6 -4 0 -8 -12 -8 -12 0 -25 5 -28 10 -5 8 -11 7 -20 0 -8 -7 -23 -9 -35
-5 -14 4 -20 2 -18 -7 2 -10 -27 -13 -144 -13 -81 0 -141 3 -135 7 8 5 6 8 -5
8 -10 0 -18 -5 -18 -11 0 -5 -5 -7 -11 -3 -7 4 -2 13 15 23 14 8 26 23 26 33
0 9 5 20 10 23 6 3 10 0 10 -7 0 -9 10 -13 28 -12 15 1 42 2 60 3 21 1 31 5
26 12 -3 6 -17 9 -31 6 -16 -3 -27 1 -30 10 -5 12 -7 12 -14 1 -6 -8 -12 -9
-16 -3 -7 8 -46 12 -63 6 -23 -9 -136 -5 -235 7 -66 8 -133 14 -150 13 -16 0
-48 4 -70 10 -22 6 -71 10 -110 9 -112 -2 -146 0 -139 12 3 5 -1 11 -9 14 -13
5 -13 9 0 35 8 16 17 29 19 29 3 0 2 -5 -2 -12 -4 -7 -3 -8 4 -4 6 4 9 13 5
21 -3 8 0 15 6 15 6 0 11 -8 11 -17 0 -10 4 -14 8 -8 12 17 42 18 36 0 -3 -8
-1 -15 5 -15 6 0 11 7 11 15 0 8 5 15 11 15 5 0 7 -6 4 -12 -4 -7 3 -2 14 11
12 13 21 20 21 16 0 -4 7 -2 15 5 12 10 15 10 15 -3 0 -9 -8 -21 -17 -26 -10
-6 -13 -11 -6 -11 6 0 15 5 18 10 4 6 11 8 16 4 6 -3 21 4 35 17 l24 22 0 -21
c0 -15 6 -22 18 -21 10 0 12 3 5 6 -21 8 -15 22 7 16 11 -3 20 0 20 6 0 6 7
11 16 11 10 0 14 6 11 14 -4 11 1 13 19 10 13 -2 24 -1 24 3 1 19 29 43 44 37
9 -3 14 -10 11 -14 -3 -5 -1 -11 5 -15 6 -3 10 4 11 17 0 13 3 17 6 10 2 -6 9
-9 15 -6 5 3 24 6 43 6 20 0 36 6 39 14 6 17 36 19 36 3 0 -6 6 -9 14 -6 10 4
12 0 8 -15 -3 -14 -1 -19 6 -14 6 4 20 -2 32 -14 15 -15 20 -16 20 -5 0 9 6
12 15 9 19 -8 20 15 0 42 -17 26 -7 41 11 16 12 -16 13 -16 14 0 0 9 -10 24
-22 32 -18 13 -19 16 -5 16 9 0 16 6 15 13 -2 6 3 11 11 9 12 -3 11 1 -1 20
-9 13 -25 23 -36 23 -11 0 -24 4 -28 8 -5 4 0 5 11 1 11 -4 17 -4 13 1 -4 4
-4 13 1 19 4 6 11 21 14 33 4 20 3 21 -15 12 -20 -11 -37 0 -38 24 0 16 -45
49 -92 70 -16 6 -28 15 -28 20 0 4 -4 5 -10 2 -18 -11 -77 55 -90 100 -7 24
-18 46 -26 49 -8 3 -14 14 -14 24 0 10 -6 32 -14 48 -20 40 -32 94 -16 74 9
-12 10 -11 5 8 -4 13 -3 28 3 35 5 7 9 28 9 48 1 24 13 56 36 92 40 62 52 114
58 242 2 43 -3 118 -10 130 -2 5 -4 28 -2 52 2 30 -1 43 -11 43 -10 0 -9 3 2
10 8 5 10 10 4 10 -13 0 -13 -1 -19 155 -5 157 -23 261 -59 335 -14 30 -26 51
-26 46 0 -5 -7 -3 -15 4 -8 7 -12 16 -9 21 3 5 -3 9 -13 9 -15 0 -15 2 -4 9
12 8 9 11 -11 16 -24 6 -26 10 -17 32 7 18 5 30 -6 46 -8 12 -15 33 -15 47 -1
14 -7 36 -15 50 l-14 25 -1 -23 c0 -13 4 -31 9 -41 11 -19 4 -61 -10 -61 -5 0
-6 6 -3 14 3 8 1 17 -5 21 -6 3 -11 21 -11 39 0 34 -20 86 -33 86 -5 0 -5 -4
-2 -10 3 -5 2 -18 -4 -27 -9 -16 -11 -16 -19 7 -5 14 -12 32 -15 40 -3 9 -6 6
-7 -10 l-1 -25 -15 28 c-18 33 -24 35 -17 5 4 -22 4 -22 -12 2 l-16 25 4 -27
c2 -15 0 -25 -4 -22 -5 3 -9 12 -9 21 0 9 -6 13 -15 9 -8 -3 -15 -1 -15 5 0 6
-4 8 -10 4 -5 -3 -16 7 -25 22 l-16 28 6 -35 c5 -30 4 -32 -6 -15 -17 28 -61
75 -72 75 -4 0 2 -15 14 -32 l23 -33 -30 25 c-16 14 -31 28 -34 31 -10 13 -50
20 -50 9 0 -6 -8 -5 -22 4 -38 23 -75 28 -92 11 -10 -11 -24 -13 -42 -9 -18 5
-25 3 -20 -4 11 -18 -13 -24 -62 -16 l-47 8 50 7 c32 5 7 6 -72 5 -68 -1 -118
1 -112 5 15 9 -43 19 -76 13 -15 -3 -43 0 -62 7 -29 9 -37 9 -45 -2 -8 -11 -9
-11 -5 2 3 9 0 22 -6 28 -8 8 -8 11 1 11 7 0 11 6 9 13 -1 6 5 12 13 12 8 0
23 8 33 18 18 18 19 18 32 0 11 -14 16 -16 26 -5 7 6 9 12 5 12 -5 0 -3 7 4
15 11 13 10 14 -3 10 -8 -4 -18 -1 -23 6 -4 7 -3 10 3 6 6 -4 13 0 17 8 3 8 0
15 -6 15 -7 0 -5 5 4 13 9 6 21 36 28 64 7 29 16 50 21 47 5 -3 4 -14 -2 -26
-18 -33 10 -18 40 22 14 19 20 30 13 26 -7 -4 -14 -1 -18 8 -3 8 -12 12 -19
10 -7 -3 -16 -1 -20 5 -3 6 -11 11 -18 11 -6 0 -3 -6 6 -12 16 -12 16 -14 0
-24 -16 -10 -18 -7 -19 18 -1 15 3 28 7 28 5 0 8 3 8 8 -3 18 2 32 11 32 5 0
6 -8 3 -17 -5 -13 -2 -15 11 -10 10 4 20 7 23 7 3 0 0 7 -7 15 -7 8 -10 16 -6
16 23 5 32 3 38 -6 5 -6 8 -2 8 8 0 10 -6 17 -12 16 -26 -3 -39 1 -33 12 4 6
14 8 22 4 14 -5 14 -3 2 11 -11 13 -11 15 3 12 9 -1 16 2 15 7 -1 6 -5 9 -9 8
-5 -2 -8 7 -8 20 0 16 3 18 9 9 7 -11 9 -11 14 2 8 21 -7 20 -39 0 -17 -11
-23 -22 -19 -35 6 -19 -17 -49 -54 -68 -35 -19 -36 -12 -1 14 19 14 32 25 29
26 -28 5 -49 4 -49 -3 0 -4 -5 -8 -12 -8 -7 0 -6 6 4 18 23 26 33 46 20 38 -7
-4 -19 -3 -28 2 -14 8 -13 10 2 23 16 12 17 12 11 -3 -5 -15 -4 -16 13 -6 10
7 16 16 13 22 -3 5 -1 6 5 2 6 -4 9 -13 6 -20 -3 -8 -1 -17 4 -20 22 -13 19
24 -4 45 -17 16 -24 18 -25 8 0 -8 -4 -6 -8 6 -5 12 -4 23 3 28 7 4 8 10 1 15
-12 9 -16 74 -4 66 5 -3 9 0 9 7 0 7 3 9 7 6 3 -4 13 2 20 13 8 11 19 18 24
15 8 -6 13 8 10 28 -1 4 6 10 14 13 8 3 13 9 11 13 -3 4 -1 13 5 21 6 11 8 5
5 -17 -3 -32 9 -47 16 -18 2 10 8 12 17 6 12 -8 12 -12 -2 -25 -9 -9 -14 -23
-11 -31 7 -17 13 -18 34 -5 12 8 10 10 -9 10 -13 0 -21 3 -17 8 4 4 18 7 29 7
23 0 24 2 13 49 -6 24 -5 27 6 18 11 -8 14 -7 14 8 0 10 -3 17 -7 14 -4 -2 -9
5 -12 16 -3 11 -1 23 5 26 5 3 7 13 4 21 -3 8 -1 23 4 33 7 13 6 20 -3 24 -9
5 -9 7 0 12 7 3 13 12 13 20 0 9 4 12 10 9 6 -3 7 1 4 9 -3 9 -1 16 5 16 6 0
11 9 11 20 0 11 5 20 10 20 6 0 10 4 10 10 0 5 -8 7 -17 4 -10 -3 -7 2 7 10
14 8 19 15 12 16 -9 0 -6 10 10 33 13 17 23 35 23 38 0 9 66 69 76 69 5 0 9 4
9 8 0 5 16 16 35 25 19 9 35 21 35 27 0 5 15 10 33 10 18 0 41 6 52 14 11 7
39 16 63 20 24 3 60 10 80 15 41 12 136 23 197 25 22 1 43 5 46 9 3 4 17 3 32
-2 22 -9 25 -8 20 6 -4 11 -2 14 5 9 16 -10 47 -16 111 -22 45 -4 52 -2 43 9
-10 11 3 13 79 11 79 -3 89 -1 73 10 -17 13 -13 14 33 14 28 1 67 7 86 16 42
17 80 53 67 61 -6 4 -10 11 -10 17 0 6 9 3 19 -6 11 -10 28 -16 38 -15 10 2
24 0 32 -5 10 -6 12 -5 7 2 -4 7 -3 12 2 12 6 0 13 -8 16 -17 6 -14 9 -15 15
-4 7 10 10 9 14 -3 9 -22 28 -20 21 2 -5 15 -4 15 10 -2 13 -16 18 -17 31 -6
11 9 15 9 15 1 0 -7 4 -10 9 -6 5 3 13 0 16 -5 4 -6 17 -10 29 -8 12 1 35 -6
50 -16 22 -14 30 -15 36 -6 6 10 9 9 12 0 2 -8 11 -14 20 -16 9 -1 33 -14 52
-29 20 -15 47 -28 61 -29 14 0 25 -7 25 -14 0 -7 14 -18 30 -23 17 -6 30 -14
30 -18 0 -4 20 -18 45 -30 25 -12 43 -26 41 -30 -3 -4 9 -13 25 -20 17 -7 33
-21 36 -30 4 -9 23 -32 45 -52 21 -19 35 -38 31 -42 -3 -4 1 -7 11 -7 9 0 20
-10 25 -23 5 -13 16 -29 25 -36 9 -7 13 -17 10 -22 -3 -5 -1 -9 5 -9 5 0 18
-15 30 -32 11 -18 29 -43 40 -55 23 -24 51 -69 78 -123 10 -19 23 -38 29 -42
7 -4 15 -24 18 -43 4 -19 11 -35 17 -35 6 0 8 -4 5 -8 -3 -5 6 -27 20 -51 13
-24 24 -51 24 -60 0 -10 3 -21 8 -25 4 -4 7 -11 8 -14 6 -36 18 -73 26 -78 5
-3 4 -12 -3 -20 -10 -12 -10 -15 1 -12 9 2 14 -9 14 -37 1 -22 7 -44 14 -48 7
-5 10 -12 7 -17 -3 -5 -1 -11 5 -15 5 -3 10 -15 10 -26 0 -11 4 -18 9 -14 5 3
13 -5 16 -17 15 -46 78 -130 161 -214 77 -77 91 -88 128 -91 22 -2 52 -12 65
-21 12 -9 44 -28 69 -42 73 -39 77 -54 74 -279 -3 -154 0 -200 12 -225 8 -17
17 -53 20 -81 6 -55 33 -182 61 -288 19 -70 35 -74 35 -10 0 46 18 126 52 233
40 124 63 170 87 170 13 0 33 22 60 65 23 36 45 65 51 65 5 0 32 23 59 51 48
49 53 51 91 46 53 -7 61 -14 104 -100 39 -78 47 -119 67 -358 7 -91 8 -142 1
-155 -11 -22 -38 -106 -35 -114 1 -3 -2 -9 -7 -15 -9 -11 -39 -115 -46 -158
-2 -16 -6 -32 -8 -36 -3 -4 -8 -48 -11 -97 -3 -49 -8 -101 -11 -116 -3 -16 -1
-28 5 -28 5 0 10 8 10 18 3 56 5 61 20 49 12 -9 13 -9 7 1 -4 7 -9 25 -11 40
l-4 27 13 -30 c12 -26 14 -27 19 -10 4 11 5 6 3 -11 -1 -22 2 -30 10 -27 7 3
10 15 8 31 l-5 25 20 -24 c11 -13 20 -18 21 -11 0 6 -5 12 -11 12 -5 0 -7 5
-3 12 5 8 13 4 25 -11 17 -21 18 -21 16 -2 -1 20 -44 38 -74 33 -7 -2 -17 8
-23 20 -11 22 -10 22 4 4 16 -20 16 -20 16 0 1 18 1 18 11 2 5 -10 21 -18 34
-18 24 0 42 16 30 28 -3 3 -10 0 -15 -8 -8 -12 -11 -13 -22 -2 -11 11 -10 13
1 10 8 -2 14 6 16 19 2 30 11 38 19 18 4 -11 2 -14 -6 -9 -7 5 -8 3 -3 -6 6
-10 13 -8 29 11 12 13 20 22 19 20 -2 -2 6 -11 18 -19 28 -19 44 -2 40 43 -1
21 2 35 9 35 6 0 8 5 5 10 -3 5 -1 10 4 10 6 0 11 -5 11 -11 0 -6 7 -4 15 5 8
8 15 20 15 26 0 7 7 10 15 6 8 -3 15 -1 15 4 0 6 -5 10 -11 10 -8 0 -7 5 1 15
7 9 10 18 6 22 -3 3 -6 1 -6 -5 0 -7 -7 -12 -16 -12 -9 0 -12 -5 -8 -12 4 -7
3 -8 -5 -4 -9 6 -7 16 8 41 18 32 18 45 -1 45 -5 0 -6 -5 -2 -11 4 -7 1 -10
-6 -7 -23 7 -23 28 -1 28 13 0 18 5 15 13 -3 8 2 14 11 14 11 0 15 -6 12 -19
-3 -10 -1 -18 4 -18 5 0 9 5 9 10 0 6 7 10 16 10 9 0 12 -5 8 -12 -5 -7 -3 -8
6 -3 10 6 9 11 -5 22 -11 7 -23 13 -27 13 -5 0 -4 10 2 23 10 20 10 20 -3 5
-8 -10 -22 -18 -31 -18 -13 0 -16 7 -13 29 3 15 10 38 16 49 14 26 15 54 1 32
-8 -13 -10 -12 -10 3 0 9 7 17 15 17 17 0 20 17 4 22 -7 2 -7 11 0 28 l11 25
-3 -25 c-1 -16 3 -24 11 -22 10 2 10 -2 2 -17 -5 -11 -10 -34 -10 -51 0 -21
-4 -29 -12 -24 -7 4 -8 3 -4 -4 4 -7 2 -12 -4 -12 -6 0 -8 -4 -5 -10 3 -5 11
-10 16 -10 6 0 8 4 4 9 -3 5 -1 12 5 16 5 3 10 1 10 -5 0 -7 5 -6 14 2 10 9
11 15 2 21 -8 5 -7 10 4 17 13 8 12 10 -2 10 -10 0 -18 5 -18 10 0 6 4 10 8
10 12 0 7 67 -7 83 -8 10 -9 17 -1 22 16 10 12 25 -5 19 -16 -6 -19 4 -9 30 8
22 25 20 18 -1 -5 -15 -4 -16 5 -3 10 13 15 8 12 -12 0 -4 5 -5 13 -2 10 4 6
13 -16 36 -22 23 -35 28 -54 24 -13 -4 -24 -3 -24 2 0 4 12 9 26 10 15 1 32 7
39 12 9 7 16 5 26 -7 12 -15 12 -16 -3 -10 -10 3 -18 2 -18 -3 0 -12 17 -12
44 -1 13 5 16 10 8 15 -6 3 -9 14 -6 24 4 10 2 13 -3 7 -4 -6 -13 -11 -20 -10
-14 0 -30 15 -17 15 14 0 15 43 1 52 -6 4 -17 2 -24 -4 -10 -8 -13 -7 -13 3
-1 9 -5 8 -15 -5 -8 -11 -15 -15 -15 -9 0 14 25 34 33 26 4 -3 7 -2 7 4 0 6
18 9 43 7 23 -2 36 -1 29 2 -6 3 -9 11 -5 17 4 7 -1 6 -10 -2 -11 -8 -17 -9
-17 -3 0 6 -8 9 -17 6 -16 -5 -16 -4 -2 8 9 7 14 19 12 26 -6 17 7 15 31 -5
21 -18 21 -18 3 3 -14 17 -15 23 -5 28 7 3 4 4 -8 1 -13 -3 -27 1 -35 11 -13
16 -23 52 -11 39 4 -4 7 -12 7 -18 0 -19 60 -20 75 -2 12 14 10 15 -13 6 -25
-10 -26 -9 -21 18 4 16 1 32 -5 35 -7 4 -9 1 -5 -7 3 -8 1 -17 -3 -20 -5 -3
-10 3 -10 14 -2 25 25 37 39 18 7 -11 8 -9 5 6 -2 11 -9 19 -16 17 -9 -2 -11
3 -8 13 9 21 -10 19 -22 -2 -6 -10 -11 -12 -11 -5 0 15 36 52 44 45 3 -4 6
-15 6 -25 0 -10 7 -18 16 -18 11 0 14 -6 8 -22 -4 -13 -12 -26 -18 -30 -8 -6
-8 -8 1 -8 6 0 18 6 25 13 7 8 20 12 28 9 9 -3 8 1 -4 10 -19 15 -19 15 0 26
18 11 18 11 -3 12 -13 0 -23 5 -23 11 0 5 5 7 12 3 8 -5 9 0 6 14 -5 16 -2 22
10 22 15 0 15 2 2 10 -12 7 -12 10 -1 10 7 0 11 6 8 14 -4 10 0 13 14 11 15
-3 19 0 15 11 -4 12 -2 12 15 4 18 -10 19 -9 8 8 -13 21 -5 57 10 47 6 -3 8
-12 4 -20 -3 -8 0 -15 7 -15 6 0 9 4 6 8 -6 10 21 35 48 45 9 4 14 11 11 17
-3 6 1 13 9 16 9 3 16 11 16 17 0 5 -9 2 -20 -8 -11 -10 -17 -22 -14 -26 3 -5
1 -9 -4 -9 -11 0 -25 30 -17 38 3 3 5 -1 5 -9 1 -11 3 -11 13 2 13 17 63 47
54 32 -3 -5 3 -9 13 -9 14 0 16 3 8 13 -6 7 -7 13 -2 13 5 0 2 5 -6 11 -13 9
-13 10 0 8 35 -3 44 1 32 13 -18 18 -14 27 10 20 17 -4 20 -2 15 11 -4 12 -1
17 10 17 13 0 13 3 3 15 -11 13 -7 19 11 17 4 -1 10 10 13 23 4 15 11 22 20
19 9 -4 13 2 11 20 -2 18 1 23 11 19 10 -3 12 0 8 10 -7 20 48 59 72 50 10 -3
15 -2 12 3 -4 5 5 10 18 10 21 2 23 0 12 -14 -12 -14 -11 -14 9 -1 12 7 20 15
17 18 -2 2 8 12 23 22 21 14 30 16 42 6 12 -10 14 -9 8 8 -7 20 -7 20 8 0 10
-12 12 -21 5 -23 -15 -5 -12 -19 5 -19 8 0 15 4 15 9 0 4 7 8 16 8 9 0 12 5 8
12 -4 6 -3 8 4 5 5 -4 8 -16 5 -27 -6 -24 24 -29 33 -5 4 8 11 12 16 9 7 -4 4
-10 -6 -16 -20 -11 -21 -28 0 -28 8 0 13 4 10 8 -2 4 4 8 14 8 10 0 17 -3 15
-7 -3 -3 7 -17 20 -29 26 -25 35 -51 11 -31 -10 8 -16 9 -21 1 -3 -5 0 -10 7
-10 13 0 48 -34 48 -46 0 -4 17 -23 37 -42 21 -20 30 -33 21 -29 -10 3 -18 2
-18 -3 0 -6 7 -10 15 -10 8 0 15 -7 15 -15 0 -8 4 -15 8 -15 13 0 11 -34 -2
-43 -7 -5 -3 -6 8 -3 16 5 18 2 13 -21 -3 -15 -1 -36 4 -45 5 -9 11 -31 13
-49 2 -17 8 -34 14 -38 6 -3 9 -19 8 -34 -2 -19 1 -27 12 -27 11 0 12 -3 3
-13 -6 -8 -8 -17 -4 -20 3 -4 8 -24 9 -44 7 -84 11 -110 19 -122 4 -8 2 -16
-5 -21 -10 -6 -9 -9 1 -12 10 -3 14 -24 14 -69 1 -35 4 -75 9 -88 5 -15 4 -21
-2 -18 -10 7 -1 -61 12 -81 4 -7 2 -12 -6 -12 -9 -1 -7 -5 4 -14 10 -7 15 -16
11 -20 -11 -10 -10 -60 1 -68 6 -4 4 -13 -5 -24 -10 -13 -11 -18 -2 -21 7 -2
9 -11 6 -19 -3 -8 0 -14 7 -14 6 0 8 -5 3 -12 -12 -20 -10 -71 5 -102 8 -16 9
-25 3 -22 -7 5 -9 -4 -7 -23 2 -17 -3 -43 -10 -57 -13 -24 -12 -25 1 -14 21
17 29 7 16 -18 -8 -15 -8 -22 2 -25 9 -4 9 -6 0 -6 -7 -1 -13 -6 -13 -12 0 -5
6 -7 13 -3 9 6 9 4 0 -7 -16 -16 -17 -59 -2 -59 8 0 8 -4 0 -13 -6 -8 -9 -32
-7 -55 2 -23 -1 -39 -5 -36 -5 3 -9 0 -9 -5 0 -6 7 -11 16 -11 8 0 12 -5 9
-11 -4 -6 -13 -8 -21 -5 -11 4 -12 2 -1 -15 10 -16 9 -21 -3 -29 -12 -8 -12
-10 2 -15 15 -6 15 -10 2 -42 -8 -19 -11 -32 -5 -29 5 4 13 1 17 -5 4 -8 3 -9
-4 -5 -8 4 -12 0 -12 -11 0 -15 -2 -16 -10 -3 -8 12 -10 11 -10 -7 0 -13 5
-23 11 -23 6 0 3 -7 -5 -16 -17 -16 -21 -34 -8 -34 16 0 5 -55 -11 -58 -10 -2
-15 -8 -11 -13 3 -5 10 -7 15 -4 17 11 9 -8 -13 -33 l-23 -24 25 7 25 8 -27
-26 c-15 -14 -24 -28 -21 -31 4 -3 7 -17 7 -29 1 -19 -3 -23 -24 -20 l-25 3
25 -11 25 -11 -22 -9 c-13 -4 -23 -16 -23 -24 0 -10 -5 -14 -12 -10 -7 4 -5 0
4 -7 15 -13 15 -15 0 -24 -19 -12 -45 -7 -37 7 4 5 -1 6 -9 3 -10 -4 -14 -18
-13 -44 2 -30 0 -36 -10 -28 -7 5 -18 6 -24 2 -8 -4 -9 -3 -5 5 6 9 0 10 -20
5 -21 -5 -25 -4 -19 6 5 8 4 11 -3 6 -6 -4 -9 -14 -6 -24 5 -14 4 -15 -5 -2
-6 8 -18 15 -28 16 -47 3 -53 5 -53 19 0 12 -4 13 -19 5 -16 -8 -21 -6 -26 11
-4 11 -9 18 -12 15 -4 -3 -13 0 -22 6 -9 7 -13 8 -9 4 9 -10 -9 -36 -24 -36
-7 0 -6 5 1 13 12 15 13 14 -49 20 -19 2 -45 9 -57 15 -20 11 -23 10 -23 -3 0
-9 4 -13 10 -10 6 4 7 -1 3 -11 -6 -16 -8 -15 -16 4 -8 18 -18 22 -56 22 -65
0 -81 2 -81 12 0 5 10 6 22 3 18 -5 20 -4 8 4 -13 9 -13 11 2 11 11 0 15 5 12
15 -6 14 -8 13 -19 -2 -16 -22 -24 -15 -27 20 -2 20 -5 24 -16 15 -7 -6 -12
-7 -11 -2 5 26 -1 36 -15 25 -12 -10 -15 -8 -18 10 -3 21 -38 38 -38 19 0 -15
18 -21 23 -8 4 9 6 10 6 1 2 -24 -19 -23 -40 1 -19 21 -24 23 -36 11 -11 -11
-11 -20 -3 -37 9 -17 4 -15 -19 9 -17 18 -33 29 -36 24 -2 -5 2 -11 10 -15 17
-6 21 -36 4 -36 -5 0 -7 6 -3 13 5 7 1 7 -12 -3 -29 -22 -30 -24 -11 -17 11 4
17 1 17 -9 0 -8 -4 -12 -10 -9 -6 3 -10 0 -10 -9 0 -8 6 -17 13 -19 6 -3 1 -6
-13 -7 -23 -1 -23 -2 -5 -9 19 -8 19 -8 -2 -19 -16 -9 -23 -9 -26 1 -4 9 -6 9
-6 -1 -1 -7 4 -23 10 -35 9 -16 9 -22 0 -25 -6 -2 -11 -13 -11 -23 0 -11 -4
-17 -10 -14 -6 3 -10 1 -10 -5 0 -6 11 -8 25 -6 32 6 32 0 -2 -19 -16 -9 -20
-14 -10 -11 9 3 17 1 17 -4 0 -6 -10 -10 -22 -10 -18 0 -20 -2 -8 -9 8 -6 18
-7 22 -5 14 9 9 -7 -7 -22 -8 -9 -15 -11 -15 -5 0 6 -7 11 -15 11 -8 0 -15 -7
-15 -15 0 -8 5 -15 11 -15 5 0 7 -5 3 -12 -5 -7 0 -9 14 -6 15 4 19 2 15 -8
-3 -8 -8 -12 -12 -10 -3 2 -11 -2 -18 -9 -10 -11 -10 -15 0 -18 7 -3 5 -6 -5
-6 -13 -1 -17 -8 -14 -31 2 -16 1 -29 -3 -28 -42 5 -53 -13 -18 -31 l22 -11
-24 6 c-16 4 -21 3 -17 -5 4 -6 0 -11 -8 -11 -19 0 -22 -36 -3 -43 8 -4 7 -6
-4 -6 -8 -1 -25 -20 -37 -43 -12 -24 -25 -42 -29 -41 -4 1 -7 -5 -7 -12 1 -8
-2 -13 -6 -10 -5 3 -18 -7 -30 -22 -15 -21 -18 -22 -10 -6 8 18 7 24 -10 33
-17 9 -20 8 -20 -9 0 -10 -7 -21 -15 -25 -8 -3 -15 -1 -15 4 0 6 5 10 10 10 6
0 5 6 -2 14 -15 16 -38 10 -38 -11 0 -8 5 -11 12 -7 6 4 8 3 5 -4 -4 -5 -16
-8 -28 -5 -16 4 -17 8 -7 14 7 5 8 9 2 9 -6 0 -11 7 -11 15 0 8 4 12 9 9 4 -3
8 -1 8 5 0 5 -5 13 -10 16 -6 4 -8 11 -4 16 3 5 2 8 -3 7 -4 -1 -19 4 -32 11
-21 12 -26 11 -36 -3 -20 -27 -27 -18 -10 14 15 28 15 30 -4 30 -14 0 -19 5
-15 15 4 8 1 22 -6 30 -6 8 -9 19 -5 25 3 5 1 10 -5 10 -8 0 -7 6 1 21 7 13 7
19 1 15 -6 -3 -13 -2 -17 4 -3 5 0 10 7 10 8 1 6 6 -6 15 -11 8 -15 15 -9 15
6 0 9 9 5 22 -3 12 -1 19 5 15 11 -7 45 28 36 37 -10 10 -25 7 -18 -3 12 -20
-13 -19 -31 1 -18 20 -18 21 -1 15 15 -6 17 -3 12 16 -7 22 -7 22 9 2 l16 -20
-7 20 c-4 11 -16 28 -28 37 -18 16 -18 17 -2 18 12 0 16 -4 11 -12 -6 -9 -3
-9 9 0 9 8 21 11 27 7 15 -9 12 4 -4 20 -9 10 -16 11 -24 3 -8 -8 -9 -5 -5 10
3 12 11 18 18 16 7 -3 16 -1 20 5 3 6 1 11 -5 11 -6 0 -8 5 -5 10 3 6 1 10 -4
10 -6 0 -11 -6 -11 -12 0 -10 -3 -9 -9 1 -5 8 -14 10 -22 5 -12 -7 -12 -5 -1
9 8 9 11 26 7 39 -5 18 -4 20 4 8 6 -8 11 -10 11 -5 0 6 5 3 11 -5 9 -13 10
-12 5 2 -3 10 -1 20 5 24 6 3 8 12 5 19 -3 8 0 16 7 19 9 3 9 5 0 5 -7 1 -13
9 -13 19 0 11 -5 8 -15 -12 -19 -35 -19 -37 0 -30 16 6 21 -11 6 -20 -10 -6
-33 17 -30 30 1 5 -1 17 -6 28 -10 22 8 35 39 30 11 -2 15 -2 8 2 -6 3 -10 9
-7 14 3 4 -3 6 -14 3 -10 -3 -22 1 -27 8 -5 8 -3 11 7 7 9 -4 14 2 15 18 1 16
-4 24 -15 25 -10 0 -11 2 -3 6 6 2 12 9 12 14 0 6 -5 7 -12 3 -7 -4 -8 -3 -4
4 4 6 13 9 21 6 8 -4 12 -10 9 -16 -3 -5 3 -4 15 4 12 7 21 17 21 22 0 4 -6 3
-14 -3 -10 -9 -15 -8 -20 4 -3 8 -13 15 -21 15 -9 0 -14 4 -10 9 3 5 1 12 -5
16 -5 3 -10 1 -10 -4 0 -6 -4 -11 -8 -11 -17 0 -8 29 10 33 11 3 18 0 18 -9 0
-8 5 -14 10 -14 6 0 10 5 10 11 0 5 6 7 13 3 6 -4 2 3 -11 15 -12 12 -28 19
-35 16 -6 -4 -3 0 7 9 10 8 22 14 25 11 4 -2 7 19 7 46 0 27 -4 49 -9 49 -4 0
-5 5 -1 11 9 15 33 -30 27 -50 -3 -11 -1 -11 7 2 6 9 17 15 23 11 7 -3 4 1 -5
9 -29 23 -38 60 -19 74 11 9 12 12 3 13 -9 0 -11 7 -7 20 8 26 -7 26 -23 -1
-8 -12 -9 -18 -4 -15 5 3 -1 -15 -13 -42 -13 -26 -34 -69 -46 -97 -13 -27 -29
-56 -36 -63 -7 -7 -13 -19 -13 -27 0 -7 -12 -23 -26 -36 -14 -13 -40 -56 -59
-95 -26 -57 -42 -78 -80 -104 -64 -44 -122 -54 -196 -36 -31 8 -73 24 -93 35
-20 12 -38 21 -40 21 -6 0 -21 -75 -46 -225 -28 -174 -107 -435 -131 -435 -5
0 -20 -24 -33 -53 -14 -29 -34 -62 -46 -74 -11 -12 -20 -29 -20 -37 0 -7 -7
-17 -16 -20 -8 -3 -12 -10 -9 -16 3 -5 1 -10 -4 -10 -6 0 -11 6 -12 13 0 6 -5
0 -11 -16 -5 -15 -13 -25 -18 -22 -4 3 -13 -9 -20 -25 -7 -17 -17 -30 -22 -30
-6 0 -8 -7 -5 -15 4 -8 2 -17 -3 -20 -6 -4 -10 -1 -10 5 0 22 -19 -1 -25 -30
-4 -17 -11 -30 -16 -30 -5 0 -9 -4 -9 -8 0 -5 -32 -42 -72 -83 -40 -41 -71
-77 -70 -81 1 -5 -5 -8 -13 -8 -8 0 -15 -5 -15 -12 0 -14 -68 -76 -93 -84 -9
-3 -17 -11 -17 -17 0 -15 -96 -117 -110 -117 -6 0 -10 -4 -10 -10 0 -5 -11
-12 -25 -16 -28 -7 -55 -39 -55 -64 1 -12 3 -12 14 3 7 9 19 17 26 17 7 0 10
7 6 16 -4 11 -1 14 12 12 9 -2 22 5 29 17 7 11 12 14 13 7 0 -8 35 20 78 61
42 41 102 98 133 128 178 171 340 379 414 532 16 31 35 63 43 70 13 10 14 4 9
-53 -3 -36 -12 -156 -18 -268 -12 -202 -12 -204 10 -248 12 -24 34 -86 48
-136 14 -51 37 -120 53 -154 46 -102 53 -152 47 -318 -6 -171 -23 -260 -74
-385 -225 -555 -239 -594 -348 -1016 -61 -236 -85 -319 -146 -505 -72 -219
-65 -206 -90 -184 -11 10 -65 109 -120 220 -96 197 -101 205 -186 291 -49 49
-104 101 -123 114 -57 41 -151 92 -157 85 -4 -3 -4 -7 -2 -8 2 -2 18 -11 34
-20 17 -10 29 -21 28 -26 -1 -5 3 -9 10 -10 30 -2 62 -13 65 -22 2 -5 8 -10
13 -10 11 0 109 -93 109 -104 0 -4 12 -18 26 -31 l26 -24 -38 -37 c-37 -38
-34 -55 5 -34 19 9 21 8 19 -14 -1 -14 -8 -28 -15 -30 -15 -6 -11 -48 5 -54 7
-2 12 -10 12 -18 0 -8 6 -14 14 -14 9 0 12 -8 9 -24 -4 -18 0 -26 17 -31 13
-4 34 -19 47 -34 14 -14 22 -19 18 -11 -4 8 1 6 9 -4 9 -11 16 -26 16 -33 0
-7 5 -13 11 -13 5 0 8 -4 4 -9 -9 -15 30 -32 43 -19 11 11 29 -16 27 -42 -1
-8 4 -32 11 -52 7 -20 10 -46 7 -57 -3 -12 -1 -21 4 -21 7 0 7 -18 1 -51 -13
-71 -3 -73 17 -4 9 31 18 55 20 53 5 -4 -53 -220 -95 -358 -37 -120 -70 -244
-165 -611 -99 -379 -134 -503 -261 -909 -119 -379 -170 -533 -243 -738 -31
-89 -65 -210 -86 -315 -20 -95 -83 -338 -141 -542 -58 -203 -121 -426 -140
-495 -40 -141 -91 -314 -169 -570 -30 -96 -79 -267 -110 -380 -30 -113 -58
-209 -60 -215 -11 -22 7 74 24 130 11 33 31 105 46 160 14 55 57 204 95 330
101 336 140 478 135 483 -2 2 -11 -3 -20 -12 -12 -12 -13 -16 -3 -16 8 0 9 -3
2 -8 -11 -7 -45 -86 -43 -100 3 -18 -14 -51 -23 -46 -6 4 -8 -2 -3 -15 3 -11
2 -21 -3 -21 -6 0 -11 -17 -11 -37 -1 -21 -2 -50 -3 -65 0 -17 -7 -28 -15 -28
-8 0 -12 -4 -9 -9 3 -4 -4 -26 -14 -47 -11 -21 -18 -45 -15 -52 3 -7 1 -11 -4
-8 -5 3 -9 -4 -9 -17 0 -12 -8 -40 -17 -62 -10 -22 -17 -44 -16 -48 0 -4 -5
-10 -13 -13 -8 -3 -12 -12 -9 -21 3 -8 0 -19 -8 -24 -8 -4 -14 -12 -14 -16 -1
-4 -6 -18 -13 -29 -6 -12 -8 -24 -5 -28 3 -3 1 -6 -6 -6 -8 0 -11 -7 -7 -15 3
-8 2 -15 -3 -15 -4 0 -6 -11 -4 -24 3 -14 -1 -25 -10 -29 -15 -6 -27 35 -27
97 0 16 -2 27 -5 25 -3 -4 -29 -275 -39 -419 -1 -19 -6 -59 -11 -87 l-8 -53
2832 0 2831 0 0 7680 0 7680 -5120 0 -5120 0 0 -1102z m6356 -366 c-10 -2 -22
2 -27 10 -16 24 -9 29 18 11 23 -15 24 -18 9 -21z m94 -62 c0 -13 -11 -13 -30
0 -12 8 -11 10 8 10 12 0 22 -4 22 -10z m-1880 -30 c18 -12 2 -12 -25 0 -13 6
-15 9 -5 9 8 0 22 -4 30 -9z m1585 -44 c66 -44 119 -88 244 -207 98 -94 132
-134 56 -68 -58 51 -40 24 50 -76 47 -52 107 -127 134 -167 26 -40 57 -80 67
-88 15 -11 16 -11 7 0 -7 8 -13 19 -13 25 0 5 7 2 15 -8 7 -11 12 -24 9 -31
-2 -6 10 -27 27 -46 l31 -35 -23 39 c-33 58 -10 37 56 -48 32 -42 54 -80 50
-86 -4 -6 2 -21 13 -33 24 -26 62 -88 62 -101 0 -5 -66 74 -146 175 -80 101
-151 189 -157 194 -13 12 -18 19 94 -140 94 -132 141 -210 133 -218 -3 -2 4
-20 15 -38 12 -19 21 -38 21 -43 0 -15 -67 77 -75 104 -7 24 -144 230 -152
230 -6 0 13 -33 67 -118 28 -42 50 -84 50 -92 0 -8 -38 48 -84 125 -46 77
-103 166 -126 197 -23 32 -39 62 -36 67 12 19 -27 83 -114 189 -49 61 -107
123 -127 138 -21 15 -58 49 -83 75 -25 25 -72 66 -105 89 -70 49 -36 45 40 -4z
m-78 -34 c117 -72 261 -193 306 -257 12 -17 -10 -1 -49 35 -110 103 -173 154
-259 210 -81 53 -79 62 2 12z m-1764 21 c-7 -2 -19 -2 -25 0 -7 3 -2 5 12 5
14 0 19 -2 13 -5z m212 -3 l30 -8 -30 0 c-16 0 -39 3 -50 8 l-20 9 20 -1 c11
0 34 -4 50 -8z m2140 -42 c12 -13 37 -34 56 -48 86 -64 240 -227 238 -253 0
-9 -2 -9 -6 1 -2 6 -13 12 -24 12 -10 0 -18 4 -16 9 3 10 -100 111 -114 111
-6 0 -17 6 -24 13 -7 6 -36 30 -64 52 -33 27 -48 45 -45 57 3 9 0 19 -6 23
-13 8 -33 45 -24 45 4 0 17 -10 29 -22z m-123 -65 c20 -24 -7 -12 -42 18 l-35
31 33 -19 c19 -10 38 -24 44 -30z m-1947 -49 c39 -13 61 -24 50 -24 -11 0 -44
9 -73 20 -29 11 -62 20 -75 20 -12 0 -29 5 -37 11 -23 15 54 0 135 -27z m2121
-103 c53 -50 100 -91 105 -91 11 0 30 -36 22 -44 -3 -3 0 -6 9 -6 8 0 23 -9
34 -21 14 -15 15 -20 4 -17 -8 2 -14 -3 -12 -9 1 -7 -2 -13 -6 -13 -10 0 -113
107 -237 244 -102 113 -56 89 81 -43z m-2393 72 c-7 -2 -21 -2 -30 0 -10 3 -4
5 12 5 17 0 24 -2 18 -5z m150 -25 c27 -10 52 -16 57 -13 5 3 44 -12 87 -34
81 -41 89 -56 12 -21 -24 11 -56 20 -71 20 -15 0 -30 4 -33 10 -3 5 -28 12
-55 16 -33 4 -50 11 -50 20 0 10 -13 14 -41 14 -22 0 -38 4 -34 9 7 13 68 3
128 -21z m2282 -29 c20 -22 20 -22 0 -11 -11 5 -29 20 -40 33 -20 22 -20 22 0
11 11 -5 29 -20 40 -33z m-2350 23 c-6 -4 -59 -5 -120 -2 l-110 6 120 2 c65 1
115 -1 110 -6z m1388 -19 c-7 -2 -19 -2 -25 0 -7 3 -2 5 12 5 14 0 19 -2 13
-5z m112 -35 c44 -17 100 -45 125 -61 63 -42 329 -293 395 -372 87 -105 160
-228 150 -252 -2 -8 13 -50 35 -95 22 -45 39 -83 37 -85 -2 -1 -23 34 -47 80
-39 73 -136 217 -147 217 -5 0 28 -57 59 -101 26 -39 96 -174 125 -244 14 -33
38 -88 54 -123 32 -70 34 -76 19 -67 -7 4 -9 -3 -5 -22 4 -20 -1 -15 -16 17
-11 25 -22 56 -24 70 -2 14 -16 55 -31 93 -21 49 -30 63 -36 52 -5 -8 -4 -23
2 -36 7 -11 10 -23 8 -25 -3 -2 -12 12 -21 32 -10 19 -13 33 -8 30 5 -3 11 3
14 14 3 11 1 18 -3 15 -5 -3 -21 18 -35 47 -14 29 -34 64 -46 78 -11 14 -3
-11 21 -57 22 -46 38 -83 36 -83 -2 0 -29 47 -60 105 -69 128 -108 191 -121
192 -5 1 -11 7 -14 14 -2 7 1 9 9 4 9 -5 11 -4 6 4 -4 6 -11 9 -15 7 -4 -3
-13 4 -20 16 -7 11 -8 17 -2 13 6 -3 11 -3 11 0 0 11 -41 60 -50 60 -9 0 -50
49 -50 60 0 3 5 3 10 0 6 -3 10 -5 10 -3 0 10 -131 141 -160 160 -56 38 -67
42 -35 12 134 -122 157 -144 148 -144 -5 0 -44 31 -86 69 -41 38 -97 82 -123
97 -26 15 -42 30 -35 32 6 2 18 -1 26 -8 8 -6 19 -9 24 -5 6 3 20 1 32 -6 15
-8 19 -8 15 0 -10 15 -58 39 -92 46 -16 3 -58 16 -94 30 l-65 25 55 -4 c70 -6
43 13 -34 24 l-51 8 53 1 c29 0 69 -6 89 -14 40 -17 66 -20 43 -5 -33 21 8 8
45 -15 22 -13 54 -31 70 -40 l30 -16 -25 21 c-60 50 -120 87 -210 127 -112 50
-109 57 5 11z m-1291 -23 c27 -14 54 -25 61 -25 6 0 27 -16 46 -37 l34 -36
-35 25 c-19 14 -69 40 -110 57 -83 36 -92 41 -64 41 10 0 41 -11 68 -25z
m-466 8 c-10 -2 -28 -2 -40 0 -13 2 -5 4 17 4 22 1 32 -1 23 -4z m101 -9 c10
-9 -35 -3 -49 6 -11 8 -7 9 15 4 17 -4 32 -8 34 -10z m226 6 c3 -6 -1 -7 -9
-4 -18 7 -21 14 -7 14 6 0 13 -4 16 -10z m-135 -20 c36 -10 57 -19 47 -19 -27
-1 -107 20 -113 30 -6 11 -11 12 66 -11z m140 -10 c0 -5 -2 -10 -4 -10 -3 0
-8 5 -11 10 -3 6 -1 10 4 10 6 0 11 -4 11 -10z m111 -51 c66 -52 138 -127 139
-143 0 -5 -17 10 -37 33 -20 24 -70 70 -111 102 -41 33 -70 59 -65 59 5 0 39
-23 74 -51z m-144 29 c29 -13 146 -97 198 -143 20 -17 23 -23 9 -16 -11 5 -26
17 -34 25 -7 9 -17 16 -22 16 -6 0 -4 -7 3 -17 13 -15 12 -15 -10 -4 -17 10
-20 15 -11 21 14 8 -64 71 -135 108 -44 23 -42 29 2 10z m-96 -15 c13 -15 12
-15 -8 -4 -24 12 -29 21 -14 21 5 0 15 -7 22 -17z m98 -20 c69 -38 120 -73
105 -73 -5 0 -18 7 -28 15 -35 26 -41 16 -10 -17 31 -33 20 -30 -33 10 -18 13
-30 28 -27 33 3 5 -9 17 -26 27 -43 23 -67 41 -56 42 5 0 39 -16 75 -37z
m2021 -10 c20 -30 24 -38 9 -23 -48 51 -62 70 -52 70 5 0 24 -21 43 -47z
m-2179 19 c-7 -2 -18 1 -23 6 -8 8 -4 9 13 5 13 -4 18 -8 10 -11z m435 -78
c37 -34 30 -30 -28 17 -43 34 -78 64 -78 66 0 8 58 -37 106 -83z m1101 80 c-3
-3 -12 -4 -19 -1 -8 3 -5 6 6 6 11 1 17 -2 13 -5z m508 -58 c6 -4 1 -4 -10 2
-11 6 -31 23 -45 39 l-25 28 35 -30 c19 -16 40 -34 45 -39z m96 47 c13 -16 12
-17 -3 -4 -17 13 -22 21 -14 21 2 0 10 -8 17 -17z m-2142 -24 c30 -11 70 -33
89 -49 46 -38 57 -29 11 10 -68 58 -15 29 63 -35 44 -36 85 -68 91 -73 7 -4
32 -30 57 -57 50 -54 30 -43 -40 22 -91 85 -141 111 -85 44 15 -17 23 -31 19
-31 -5 0 12 -20 36 -45 24 -25 41 -45 38 -45 -12 0 -83 76 -99 106 -34 65
-175 149 -261 156 -16 1 -28 6 -28 10 0 15 54 8 109 -13z m137 5 c18 -14 18
-14 -6 -3 -31 14 -36 19 -24 19 6 0 19 -7 30 -16z m2385 -46 c46 -35 84 -70
85 -78 0 -8 4 -23 8 -32 19 -43 -6 -26 -104 69 -61 59 -98 102 -89 103 9 0 54
-28 100 -62z m-2668 45 c-7 -2 -19 -2 -25 0 -7 3 -2 5 12 5 14 0 19 -2 13 -5z
m-190 -20 c-7 -2 -21 -2 -30 0 -10 3 -4 5 12 5 17 0 24 -2 18 -5z m542 -58
c22 -20 18 -18 -18 6 -26 18 -53 40 -60 48 -14 18 34 -16 78 -54z m2129 49 c5
-14 4 -15 -9 -4 -17 14 -19 20 -6 20 5 0 12 -7 15 -16z m-2603 -12 c-7 -2 -18
1 -23 6 -8 8 -4 9 13 5 13 -4 18 -8 10 -11z m269 -4 c10 -6 7 -7 -10 -2 -14 3
-32 11 -40 16 -10 6 -7 7 10 2 14 -3 32 -11 40 -16z m-175 -14 c33 -9 69 -17
80 -18 65 -9 99 -25 175 -81 84 -63 152 -125 135 -125 -15 0 -75 51 -70 60 5
8 -20 23 -40 25 -13 1 -62 35 -50 35 9 0 -35 34 -45 35 -3 1 -20 9 -39 19 -19
10 -50 20 -70 21 -56 5 -184 45 -145 45 5 0 37 -7 69 -16z m2819 -10 c5 -14 4
-15 -9 -4 -17 14 -19 20 -6 20 5 0 12 -7 15 -16z m-2536 -70 c21 -17 87 -85
147 -150 102 -110 105 -120 12 -35 -20 19 -37 40 -37 46 0 16 -113 123 -172
164 -27 17 -48 34 -48 37 0 9 60 -29 98 -62z m1625 -6 c37 -22 65 -43 62 -47
-7 -12 22 -34 34 -27 10 7 106 -83 160 -149 l32 -40 -32 50 c-17 28 -41 61
-53 74 -18 20 -18 23 -3 18 9 -4 17 -2 17 4 0 6 5 7 11 3 8 -5 8 -8 0 -14 -8
-4 -6 -14 7 -31 11 -13 42 -58 71 -99 28 -41 72 -104 97 -138 60 -84 51 -90
-11 -7 -27 36 -51 65 -53 65 -6 0 17 -36 47 -74 30 -38 41 -63 21 -51 -6 3 -7
-1 -3 -10 4 -11 8 -13 12 -6 13 21 127 -165 118 -192 -2 -6 -18 23 -35 63 -18
40 -35 70 -38 67 -3 -2 10 -45 29 -93 41 -105 57 -160 56 -194 0 -14 -13 12
-29 59 -31 89 -50 121 -50 84 0 -12 4 -24 9 -27 5 -3 11 -23 14 -43 3 -21 12
-76 21 -122 9 -46 15 -89 12 -95 -2 -6 -5 -4 -5 5 -1 9 -8 22 -16 29 -13 11
-13 15 -3 22 10 7 10 10 -3 18 -9 5 -20 26 -23 45 -10 52 -90 256 -143 365
-40 82 -60 108 -142 190 -52 52 -85 86 -72 75 17 -15 24 -16 30 -6 6 9 11 10
15 2 4 -6 2 -11 -5 -11 -15 0 34 -54 76 -83 29 -20 29 -20 -4 16 -19 21 -31
37 -26 37 5 0 -8 17 -28 38 -21 21 -35 41 -31 44 3 4 -8 14 -25 23 -17 8 -31
19 -31 23 0 4 -16 18 -35 31 -20 13 -33 26 -31 29 7 7 76 -37 113 -71 18 -17
35 -28 38 -25 10 10 -106 95 -182 133 -41 20 -72 39 -70 41 2 2 31 -7 65 -21
88 -36 87 -31 -3 21 -44 26 -84 51 -90 56 -13 13 22 -4 108 -54z m-1435 40
c19 -19 14 -33 -6 -15 -29 26 -38 20 -12 -8 13 -14 28 -25 32 -25 15 0 117
-94 112 -102 -3 -5 -43 26 -89 69 -46 42 -82 80 -79 85 7 12 28 10 42 -4z
m-342 -11 c11 -7 38 -27 60 -46 21 -19 28 -27 14 -17 -14 9 -38 24 -53 34 -45
27 -63 41 -52 41 6 0 19 -5 31 -12z m184 -17 c17 -16 27 -30 22 -30 -4 0 -21
14 -37 30 -16 17 -26 30 -22 30 3 0 20 -13 37 -30z m2077 -85 c9 -16 19 -32
23 -35 6 -5 58 -80 73 -105 3 -6 -3 -11 -13 -11 -10 0 -16 4 -14 8 3 5 -4 21
-15 37 -12 16 -21 33 -21 38 0 4 -18 25 -40 47 -22 21 -37 42 -34 47 3 5 -9
28 -26 52 l-32 42 42 -45 c23 -25 49 -58 57 -75z m-1837 80 c13 -14 21 -25 18
-25 -2 0 -15 11 -28 25 -13 14 -21 25 -18 25 2 0 15 -11 28 -25z m1700 5 c0
-5 -2 -10 -4 -10 -3 0 -8 5 -11 10 -3 6 -1 10 4 10 6 0 11 -4 11 -10z m585
-30 c3 -6 -1 -7 -9 -4 -18 7 -21 14 -7 14 6 0 13 -4 16 -10z m-540 -26 c9 -15
12 -23 6 -20 -11 7 -35 46 -28 46 3 0 12 -12 22 -26z m-1884 -1 c13 -16 12
-17 -3 -4 -17 13 -22 21 -14 21 2 0 10 -8 17 -17z m2371 -118 c60 -62 120
-129 133 -148 13 -19 31 -37 40 -40 8 -4 15 -12 15 -19 0 -7 -23 12 -51 42
-28 30 -90 96 -138 145 -105 110 -140 151 -122 140 7 -4 63 -58 123 -120z
m-503 50 c0 -11 -25 20 -41 50 -5 11 2 7 16 -10 14 -16 25 -34 25 -40z m255
-32 c82 -128 109 -173 102 -173 -3 0 -34 44 -69 98 -89 137 -109 172 -103 172
4 0 35 -44 70 -97z m-2186 7 c4 0 20 -17 37 -38 22 -28 12 -22 -43 27 -39 35
-72 66 -72 68 0 3 16 -9 35 -26 20 -17 39 -31 43 -31z m2030 -15 c15 -16 45
-59 66 -95 21 -36 50 -82 64 -103 14 -20 23 -39 21 -42 -3 -2 -36 46 -74 106
-38 61 -79 120 -90 132 -11 12 -29 36 -38 52 l-18 30 21 -25 c11 -14 33 -38
48 -55z m73 28 c17 -27 37 -52 43 -58 18 -17 91 -161 73 -147 -9 8 -26 35 -38
60 -13 26 -44 80 -71 120 -27 39 -46 72 -44 72 3 0 19 -21 37 -47z m-2766 27
c-27 -12 -43 -12 -25 0 8 5 22 9 30 9 10 0 8 -3 -5 -9z m-45 -14 c0 -2 -7 -7
-16 -10 -8 -3 -12 -2 -9 4 6 10 25 14 25 6z m-54 -29 c-11 -7 -44 -32 -75 -56
-75 -59 -94 -70 -51 -31 49 45 123 100 135 99 6 0 1 -6 -9 -12z m2805 -84 c34
-46 89 -133 77 -123 -9 8 -118 161 -118 166 0 10 8 2 41 -43z m-1841 12 c13
-14 21 -25 18 -25 -2 0 -15 11 -28 25 -13 14 -21 25 -18 25 2 0 15 -11 28 -25z
m1661 -12 c13 -16 12 -17 -3 -4 -10 7 -18 15 -18 17 0 8 8 3 21 -13z m579 -48
c13 -14 19 -25 14 -25 -8 1 -50 50 -41 50 2 0 14 -11 27 -25z m-2194 -6 c19
-22 19 -22 -3 -8 -13 8 -23 17 -23 21 0 12 6 9 26 -13z m-1176 7 c0 -2 -8 -10
-17 -17 -16 -13 -17 -12 -4 4 13 16 21 21 21 13z m1155 -26 c10 -11 16 -20 13
-20 -3 0 -13 9 -23 20 -10 11 -16 20 -13 20 3 0 13 -9 23 -20z m2004 -61 c6 9
11 7 22 -5 12 -16 12 -17 -3 -11 -9 3 -18 1 -20 -5 -4 -12 -48 52 -48 68 0 5
9 -6 21 -25 14 -23 23 -30 28 -22z m-397 -98 c33 -46 159 -313 157 -334 0 -7
-5 1 -11 16 -9 26 -11 27 -25 10 -8 -10 -12 -13 -9 -7 3 6 -14 61 -39 123 -42
109 -80 179 -137 252 -15 20 -28 41 -28 45 0 11 51 -48 92 -105z m-1262 89
c-18 -12 -30 -13 -30 -2 0 4 10 9 22 9 18 2 20 0 8 -7z m1860 -20 c12 -23 12
-24 -3 -11 -10 7 -17 20 -17 29 0 18 3 16 20 -18z m-3341 -103 c-17 -31 -33
-57 -35 -57 -3 0 9 27 27 60 18 33 34 59 35 57 2 -2 -10 -29 -27 -60z m-2339
33 c0 -5 -4 -10 -10 -10 -5 0 -10 5 -10 10 0 6 5 10 10 10 6 0 10 -4 10 -10z
m154 -15 c3 -8 1 -15 -4 -15 -6 0 -10 7 -10 15 0 8 2 15 4 15 2 0 6 -7 10 -15z
m5278 -57 c41 -63 61 -98 54 -98 -5 0 -63 87 -85 128 -21 39 -5 23 31 -30z
m-307 -101 c31 -67 54 -128 43 -117 -3 3 -20 39 -39 80 -18 41 -46 97 -61 123
-15 26 -28 51 -28 55 0 15 54 -74 85 -141z m-6045 123 c0 -5 -2 -10 -4 -10 -3
0 -8 5 -11 10 -3 6 -1 10 4 10 6 0 11 -4 11 -10z m900 6 c0 -2 -7 -6 -15 -10
-8 -3 -15 -1 -15 4 0 6 7 10 15 10 8 0 15 -2 15 -4z m6014 -12 c3 -8 2 -12 -4
-9 -6 3 -10 10 -10 16 0 14 7 11 14 -7z m-954 -104 c28 -55 48 -100 45 -100
-3 0 -27 45 -55 100 -28 55 -48 100 -45 100 3 0 27 -45 55 -100z m-2754 23
c-8 -15 -15 -25 -16 -21 0 12 23 58 27 54 3 -2 -2 -17 -11 -33z m3222 -68 c-3
-3 -9 2 -12 12 -6 14 -5 15 5 6 7 -7 10 -15 7 -18z m-3227 -85 c-11 -40 -24
-76 -27 -79 -4 -3 -5 1 -2 9 3 8 13 48 24 88 10 41 20 70 22 64 1 -5 -6 -42
-17 -82z m3279 35 c0 -5 -5 -3 -10 5 -5 8 -10 20 -10 25 0 6 5 3 10 -5 5 -8
10 -19 10 -25z m-3335 -85 c-13 -52 -22 -75 -19 -50 6 50 33 154 39 148 2 -2
-7 -46 -20 -98z m2855 31 c11 -29 19 -55 17 -57 -2 -2 -16 26 -30 63 -15 37
-23 62 -18 57 5 -5 19 -33 31 -63z m149 -91 c0 -9 -4 -8 -9 5 -5 11 -9 27 -9
35 0 9 4 8 9 -5 5 -11 9 -27 9 -35z m-2982 -22 c-3 -8 -6 -5 -6 6 -1 11 2 17
5 13 3 -3 4 -12 1 -19z m3019 -92 c3 -23 -1 -18 -15 19 -11 28 -19 57 -19 65
0 23 28 -48 34 -84z m-5452 48 c3 -8 2 -12 -4 -9 -6 3 -10 10 -10 16 0 14 7
11 14 -7z m2782 -39 c1 -8 -2 -15 -6 -15 -5 0 -8 9 -7 20 1 21 10 18 13 -5z
m-85 -53 c-6 -11 -7 -22 -4 -26 3 -3 1 -6 -5 -6 -7 0 -12 5 -12 11 0 15 21 52
27 46 2 -3 0 -14 -6 -25z m60 -5 c-10 -9 -11 -8 -5 6 3 10 9 15 12 12 3 -3 0
-11 -7 -18z m2718 -37 c0 -9 -4 -8 -9 5 -5 11 -9 27 -9 35 0 9 4 8 9 -5 5 -11
9 -27 9 -35z m-4994 10 c3 -5 2 -10 -4 -10 -5 0 -13 5 -16 10 -3 6 -2 10 4 10
5 0 13 -4 16 -10z m5022 -12 c-3 -8 -6 -5 -6 6 -1 11 2 17 5 13 3 -3 4 -12 1
-19z m-5557 -187 c0 -6 -4 -12 -8 -15 -5 -3 -9 1 -9 9 0 8 4 15 9 15 4 0 8 -4
8 -9z m2700 -175 c0 -2 -8 -10 -17 -17 -16 -13 -17 -12 -4 4 13 16 21 21 21
13z m4720 -266 c0 -5 -8 -10 -17 -10 -15 0 -16 2 -3 10 19 12 20 12 20 0z
m-4166 -166 c3 -8 2 -12 -4 -9 -6 3 -10 10 -10 16 0 14 7 11 14 -7z m4466 -15
c0 -6 -4 -7 -10 -4 -5 3 -10 11 -10 16 0 6 5 7 10 4 6 -3 10 -11 10 -16z
m-8111 -76 c2 -2 -3 -3 -11 -3 -9 0 -19 7 -22 16 -6 15 -4 15 11 3 10 -7 20
-15 22 -16z m-49 7 c0 -5 -5 -10 -11 -10 -5 0 -7 5 -4 10 3 6 8 10 11 10 2 0
4 -4 4 -10z m4000 -38 c0 -15 -2 -15 -10 -2 -13 20 -13 33 0 25 6 -3 10 -14
10 -23z m67 -129 c-16 -16 -17 -15 -17 17 0 32 1 33 17 17 16 -16 16 -18 0
-34z m3388 37 c-3 -5 -12 -10 -18 -10 -7 0 -6 4 3 10 19 12 23 12 15 0z
m-4025 -65 c0 -10 9 -14 28 -11 16 2 37 -3 47 -10 11 -8 15 -15 9 -15 -22 -3
-50 4 -57 15 -6 7 -7 6 -4 -4 2 -8 14 -21 28 -27 22 -12 23 -13 3 -13 -12 0
-31 9 -44 20 -12 11 -27 17 -31 14 -5 -3 -9 0 -9 5 0 6 5 11 11 11 6 0 9 9 6
20 -3 11 -1 18 4 14 5 -3 9 -12 9 -19z m-35 5 c8 -13 -25 -13 -45 0 -12 8 -9
10 12 10 15 0 30 -4 33 -10z m-5 -34 c0 -3 -4 -8 -10 -11 -5 -3 -10 -1 -10 4
0 6 5 11 10 11 6 0 10 -2 10 -4z m3932 -68 c-8 -8 -9 -4 -5 13 4 13 8 18 11
10 2 -7 -1 -18 -6 -23z m-3747 -7 c20 -5 -6 -7 -75 -4 -84 4 -120 1 -183 -15
-49 -13 -77 -16 -74 -9 12 36 238 56 332 28z m15 -110 c14 -30 0 -41 -52 -41
-56 0 -75 51 -23 62 41 9 64 3 75 -21z m310 -88 c17 -14 28 -28 25 -31 -2 -3
-20 9 -40 27 -20 17 -31 31 -25 31 5 0 24 -12 40 -27z m-82 -65 c-7 -19 -38
-22 -38 -4 0 10 9 16 21 16 12 0 19 -5 17 -12z m3427 -47 c-14 -29 -27 -41
-24 -23 3 20 -3 23 -18 11 -16 -13 -17 -12 -5 3 8 10 17 16 20 15 4 -1 8 2 9
7 2 10 26 27 31 21 2 -2 -4 -17 -13 -34z m-3385 -20 c0 -5 -7 -11 -15 -15 -15
-5 -20 5 -8 17 9 10 23 9 23 -2z m35 -11 c3 -5 -1 -10 -9 -10 -9 0 -16 5 -16
10 0 6 4 10 9 10 6 0 13 -4 16 -10z m-595 -46 c0 0 -7 -1 -15 -1 -8 0 -15 5
-15 11 0 6 -5 5 -12 -2 -7 -7 -16 -12 -22 -12 -5 0 -1 8 9 18 18 16 21 16 37
3 10 -9 18 -16 18 -17z m520 21 c0 -8 -2 -15 -4 -15 -2 0 -6 7 -10 15 -3 8 -1
15 4 15 6 0 10 -7 10 -15z m-3623 -17 c-3 -8 -6 -5 -6 6 -1 11 2 17 5 13 3 -3
4 -12 1 -19z m-372 -88 c3 -6 -1 -7 -9 -4 -18 7 -21 14 -7 14 6 0 13 -4 16
-10z m7395 6 c0 -3 -4 -8 -10 -11 -5 -3 -10 -1 -10 4 0 6 5 11 10 11 6 0 10
-2 10 -4z m-93 -51 c0 -8 -4 -15 -8 -15 -11 0 -20 16 -12 24 11 11 20 7 20 -9z
m-3907 -35 c-19 -13 -30 -13 -30 0 0 6 10 10 23 10 18 0 19 -2 7 -10z m-3390
-64 c0 -2 -7 -7 -16 -10 -8 -3 -12 -2 -9 4 6 10 25 14 25 6z m7333 -104 c-10
-10 -20 -14 -21 -10 -2 5 -8 6 -12 3 -5 -3 -11 -1 -15 4 -3 6 3 8 15 6 11 -2
22 0 25 6 4 5 10 9 16 9 5 0 1 -8 -8 -18z m-118 -50 c-3 -3 -11 0 -18 7 -9 10
-8 11 6 5 10 -3 15 -9 12 -12z m125 -43 c0 -11 -6 -19 -12 -19 -9 0 -8 -4 2
-10 8 -5 10 -10 4 -10 -7 0 -20 12 -30 28 -13 19 -13 24 -2 15 8 -7 18 -10 21
-6 4 3 -1 12 -11 19 -15 12 -15 12 6 7 13 -3 22 -13 22 -24z m-110 11 c0 -5
-5 -10 -11 -10 -5 0 -7 5 -4 10 3 6 8 10 11 10 2 0 4 -4 4 -10z m-7320 -10 c0
-5 -5 -10 -11 -10 -6 0 -9 -7 -5 -15 3 -8 1 -15 -4 -15 -5 0 -9 11 -8 25 2 23
28 37 28 15z m7294 -26 c3 -8 2 -12 -4 -9 -6 3 -10 10 -10 16 0 14 7 11 14 -7z
m-3247 -36 c-3 -8 -6 -5 -6 6 -1 11 2 17 5 13 3 -3 4 -12 1 -19z m-864 -33
c-3 -9 -8 -14 -10 -11 -3 3 -2 9 2 15 9 16 15 13 8 -4z m4211 -37 c7 -5 5 -8
-6 -8 -23 0 -28 12 -20 41 l7 24 3 -25 c2 -14 9 -28 16 -32z m-54 28 c0 -2 -7
-7 -16 -10 -8 -3 -12 -2 -9 4 6 10 25 14 25 6z m-85 -16 c3 -5 1 -10 -4 -10
-6 0 -11 5 -11 10 0 6 2 10 4 10 3 0 8 -4 11 -10z m-6735 -10 c0 -5 -2 -10 -4
-10 -3 0 -8 5 -11 10 -3 6 -1 10 4 10 6 0 11 -4 11 -10z m2641 -23 c-10 -9
-11 -8 -5 6 3 10 9 15 12 12 3 -3 0 -11 -7 -18z m4109 -9 c0 -4 -4 -8 -9 -8
-6 0 -12 4 -15 8 -3 5 1 9 9 9 8 0 15 -4 15 -9z m2366 -276 c-3 -5 1 -21 9
-36 8 -14 10 -24 5 -21 -6 4 -10 1 -10 -4 0 -6 -5 -11 -12 -11 -9 0 -9 3 -1
11 14 14 5 51 -11 42 -6 -4 -5 1 3 10 14 17 26 24 17 9z m-9776 -67 c0 -8 -5
-17 -12 -21 -8 -5 -9 -2 -5 9 3 10 2 17 -4 17 -6 0 -7 5 -4 10 8 13 25 3 25
-15z m9753 -22 c-13 -2 -23 -9 -23 -14 0 -5 -5 -9 -11 -9 -8 0 -8 5 1 15 7 8
22 14 34 14 20 -2 20 -2 -1 -6z m67 -18 c-12 -15 -40 -9 -40 7 0 6 6 5 15 -2
12 -10 15 -9 15 4 0 10 5 14 10 11 8 -5 7 -11 0 -20z m-49 -8 c25 -19 32 -53
14 -70 -17 -18 -20 -37 -4 -37 5 0 7 5 3 12 -5 7 -2 9 8 5 12 -4 14 -1 11 14
-6 20 20 28 32 9 3 -6 -1 -7 -9 -4 -20 8 -20 -5 0 -34 9 -14 14 -33 10 -47 -4
-14 -1 -25 7 -28 6 -3 3 -6 -8 -6 -16 -1 -17 -3 -6 -10 12 -8 12 -12 2 -25 -8
-9 -9 -16 -3 -16 5 0 13 7 16 16 3 8 10 13 15 10 5 -3 1 -28 -10 -56 -16 -43
-17 -50 -4 -50 8 0 15 -5 15 -11 0 -5 -5 -7 -12 -3 -7 4 -8 3 -4 -5 11 -17 36
6 30 27 -5 15 -4 15 6 0 8 -13 7 -23 -2 -38 -7 -11 -16 -20 -20 -20 -5 0 -8
-5 -8 -10 0 -7 6 -7 20 0 22 12 27 1 9 -17 -7 -7 -8 -17 -3 -25 15 -24 14 -48
-2 -48 -10 0 -14 6 -10 15 3 8 1 15 -4 15 -15 0 -12 -26 3 -39 8 -6 17 -8 21
-4 4 4 4 0 1 -9 -4 -9 -14 -19 -22 -22 -13 -5 -14 -4 -3 9 22 27 -6 16 -31
-12 -13 -15 -16 -21 -6 -14 15 12 17 12 11 -3 -3 -9 -16 -16 -28 -17 -19 -1
-19 -2 3 -8 14 -4 26 -13 29 -21 3 -12 2 -12 -6 -2 -7 11 -12 11 -25 -2 -20
-20 -28 -20 -21 -1 4 10 0 15 -14 15 -23 0 -34 -22 -25 -47 5 -15 3 -14 -10 2
-11 15 -12 22 -4 27 11 7 2 12 -16 9 -5 -1 -6 3 -2 9 3 5 2 10 -3 10 -5 0 -9
7 -9 16 0 15 1 15 12 0 15 -20 22 -20 22 -1 0 8 -4 12 -9 9 -7 -4 -12 31 -6
39 4 4 -47 53 -53 50 -3 -1 -4 9 -1 23 3 18 8 22 15 15 6 -6 18 -11 26 -11 9
0 7 6 -9 20 -21 18 -22 20 -4 21 11 0 13 3 6 6 -9 3 -7 12 8 33 19 27 18 60
-2 60 -6 0 -5 -6 2 -15 6 -8 9 -19 6 -24 -8 -12 -36 -3 -36 11 0 5 5 6 11 2 7
-4 10 -1 7 7 -3 8 1 22 10 31 13 15 13 18 0 23 -9 4 -13 16 -10 40 2 19 8 32
13 29 5 -3 9 0 9 5 0 6 7 11 15 11 8 0 15 -4 15 -10 0 -5 5 -10 11 -10 8 0 8
4 0 14 -13 15 1 30 28 31 8 0 16 7 18 15 4 12 2 12 -5 2 -5 -7 -13 -12 -18
-11 -5 1 -17 -1 -27 -6 -24 -10 -32 0 -36 50 -1 6 -5 3 -10 -4 -6 -9 -6 -22 0
-32 6 -12 5 -20 -1 -24 -6 -4 -9 -3 -8 2 1 4 -4 19 -11 33 -8 14 -10 22 -6 18
5 -5 14 1 22 12 13 18 49 18 37 -1 -8 -14 6 -11 22 5 16 17 19 61 4 51 -6 -4
-9 -1 -8 7 2 7 -3 12 -9 11 -7 -2 -13 2 -13 7 0 13 11 12 31 -3z m62 -32 c-7
-21 -13 -19 -13 6 0 11 4 18 10 14 5 -3 7 -12 3 -20z m-86 -10 c0 -8 -4 -12
-9 -9 -5 3 -6 10 -3 15 9 13 12 11 12 -6z m118 -55 c3 -6 -1 -7 -9 -4 -18 7
-21 14 -7 14 6 0 13 -4 16 -10z m-6115 -79 c0 -6 -4 -13 -10 -16 -5 -3 -10 1
-10 9 0 9 5 16 10 16 6 0 10 -4 10 -9z m4150 -41 c0 -5 -4 -10 -10 -10 -5 0
-10 5 -10 10 0 6 5 10 10 10 6 0 10 -4 10 -10z m-4143 -18 c14 -9 6 -23 -24
-40 -20 -10 -23 -10 -23 3 0 15 20 44 30 44 3 1 10 -3 17 -7z m-57 -26 c0 -8
3 -21 6 -30 3 -9 2 -16 -4 -16 -5 0 -12 14 -14 30 -3 17 -1 30 4 30 4 0 8 -6
8 -14z m-20 -26 c0 -11 0 -22 0 -25 0 -3 -3 -6 -7 -7 -5 -2 -8 9 -8 25 -1 15
3 27 7 27 4 0 8 -9 8 -20z m300 10 c0 -5 -5 -10 -11 -10 -5 0 -7 5 -4 10 3 6
8 10 11 10 2 0 4 -4 4 -10z m3877 4 c-3 -3 -12 -4 -19 -1 -8 3 -5 6 6 6 11 1
17 -2 13 -5z m-4077 -24 c0 -5 -7 -10 -16 -10 -8 0 -12 5 -9 10 3 6 10 10 16
10 5 0 9 -4 9 -10z m1032 -75 c4 -20 2 -23 -8 -14 -7 6 -10 17 -7 25 7 20 10
18 15 -11z m3531 -20 c-3 -9 -8 -14 -10 -11 -3 3 -2 9 2 15 9 16 15 13 8 -4z
m-558 -35 c3 -5 1 -10 -4 -10 -6 0 -11 5 -11 10 0 6 2 10 4 10 3 0 8 -4 11
-10z m1909 -56 c9 -8 16 -20 16 -25 0 -5 -9 0 -20 11 -19 19 -25 30 -16 30 3
0 12 -7 20 -16z m-2434 -19 c0 -8 -2 -15 -4 -15 -2 0 -6 7 -10 15 -3 8 -1 15
4 15 6 0 10 -7 10 -15z m2507 -97 c-3 -8 -6 -5 -6 6 -1 11 2 17 5 13 3 -3 4
-12 1 -19z m-9713 -3 c-4 -8 -11 -15 -16 -15 -6 0 -5 6 2 15 7 8 14 15 16 15
2 0 1 -7 -2 -15z m7248 -143 c-7 -2 -8 -12 -2 -26 6 -17 5 -23 -5 -23 -9 0
-12 10 -10 29 3 21 -1 28 -13 28 -14 0 -15 2 -2 10 9 6 19 5 28 -3 9 -7 10
-13 4 -15z m-2422 2 c0 -8 -5 -12 -10 -9 -6 4 -8 11 -5 16 9 14 15 11 15 -7z
m2485 -112 c-11 -9 -15 -11 -8 -3 6 7 9 21 6 30 -5 13 -3 14 8 3 11 -10 10
-15 -6 -30z m-2925 -30 c0 -10 -7 -27 -15 -38 -13 -18 -14 -18 -9 6 9 38 13
50 19 50 3 0 5 -8 5 -18z m3035 -62 c3 -5 2 -10 -4 -10 -5 0 -13 5 -16 10 -3
6 -2 10 4 10 5 0 13 -4 16 -10z m-3240 -30 c3 -5 1 -10 -4 -10 -6 0 -11 5 -11
10 0 6 2 10 4 10 3 0 8 -4 11 -10z m-2537 -44 c-7 -8 -15 -12 -17 -11 -5 6 10
25 20 25 5 0 4 -6 -3 -14z m2542 -30 c0 -2 -7 -9 -15 -16 -12 -10 -15 -10 -15
4 0 9 7 16 15 16 8 0 15 -2 15 -4z m-513 -58 c-3 -8 -6 -5 -6 6 -1 11 2 17 5
13 3 -3 4 -12 1 -19z m702 -127 c-15 -5 -22 6 -14 19 6 9 10 9 16 -1 5 -8 4
-15 -2 -18z m-113 -36 c-9 -19 -19 -35 -21 -35 -8 0 0 34 14 58 20 37 26 17 7
-23z m-399 -97 c2 -18 0 -20 -7 -8 -12 18 -13 30 -2 30 4 0 9 -10 9 -22z m295
-496 c-23 -22 -42 -35 -42 -30 0 4 10 16 21 27 12 10 29 25 38 33 9 8 18 13
20 11 2 -1 -14 -20 -37 -41z m52 3 c-4 -8 -11 -15 -16 -15 -6 0 -5 6 2 15 7 8
14 15 16 15 2 0 1 -7 -2 -15z m-64 -52 c0 -5 -9 -19 -20 -33 -16 -20 -19 -21
-14 -5 11 31 34 58 34 38z m1204 -59 c3 -8 2 -12 -4 -9 -6 3 -10 10 -10 16 0
14 7 11 14 -7z m73 -16 c-3 -8 -6 -5 -6 6 -1 11 2 17 5 13 3 -3 4 -12 1 -19z
m-47 -39 c0 -6 -4 -7 -10 -4 -5 3 -10 11 -10 16 0 6 5 7 10 4 6 -3 10 -11 10
-16z m-1159 -16 c-8 -15 -10 -15 -11 -2 0 17 10 32 18 25 2 -3 -1 -13 -7 -23z
m782 -40 c-9 -23 -20 -4 -15 24 5 24 6 25 12 8 4 -11 5 -26 3 -32z m224 0 c-3
-10 -5 -4 -5 12 0 17 2 24 5 18 2 -7 2 -21 0 -30z m-275 5 c-7 -7 -12 -8 -12
-2 0 14 12 26 19 19 2 -3 -1 -11 -7 -17z m-105 -20 c-3 -8 -6 -5 -6 6 -1 11 2
17 5 13 3 -3 4 -12 1 -19z m210 -10 c-3 -8 -6 -5 -6 6 -1 11 2 17 5 13 3 -3 4
-12 1 -19z m648 -1717 c-3 -6 -11 -11 -17 -11 -6 0 -6 6 2 15 14 17 26 13 15
-4z"/>
<path d="M6550 13263 c0 -5 12 -20 26 -34 24 -21 26 -22 16 -3 -13 25 -42 50
-42 37z"/>
<path d="M6819 13003 c18 -24 35 -43 38 -43 7 0 -34 55 -54 71 -10 8 -3 -5 16
-28z"/>
<path d="M6850 13326 c0 -2 7 -7 16 -10 8 -3 12 -2 9 4 -6 10 -25 14 -25 6z"/>
<path d="M5989 13340 c24 -11 46 -18 49 -16 5 6 -65 36 -82 36 -6 0 9 -9 33
-20z"/>
<path d="M6150 13236 c0 -2 8 -10 18 -17 15 -13 16 -12 3 4 -13 16 -21 21 -21
13z"/>
<path d="M6289 13136 c6 -8 10 -18 9 -24 -2 -5 2 -11 7 -12 6 -1 17 -7 25 -13
8 -7 1 5 -14 26 -16 20 -31 37 -33 37 -3 0 0 -6 6 -14z"/>
<path d="M6338 13042 c28 -38 39 -46 39 -27 0 8 -4 12 -9 9 -5 -4 -8 2 -6 12
2 10 -1 19 -7 19 -5 0 -17 4 -24 9 -8 5 -5 -5 7 -22z"/>
<path d="M6411 13016 c9 -12 22 -32 29 -46 7 -14 27 -43 45 -65 18 -22 42 -59
55 -82 25 -46 42 -51 19 -5 -20 40 -99 150 -134 187 -16 17 -23 22 -14 11z"/>
<path d="M6681 12400 c14 -31 19 -36 19 -24 0 6 -7 19 -16 30 -14 18 -14 18
-3 -6z"/>
<path d="M4425 13250 c3 -5 11 -10 16 -10 6 0 7 5 4 10 -3 6 -11 10 -16 10 -6
0 -7 -4 -4 -10z"/>
<path d="M6306 12902 c10 -19 25 -39 33 -45 9 -8 8 0 -5 21 -10 19 -25 39 -33
45 -9 8 -8 0 5 -21z"/>
<path d="M6441 12615 c0 -5 8 -26 19 -45 11 -19 19 -30 19 -25 0 6 -8 26 -19
45 -11 19 -19 31 -19 25z"/>
<path d="M9947 9446 c-4 -10 -1 -13 9 -9 15 6 19 23 5 23 -5 0 -11 -7 -14 -14z"/>
<path d="M9857 9413 c-13 -12 -7 -40 11 -54 14 -11 15 -11 5 1 -18 19 -16 43
1 37 10 -4 13 -1 9 9 -6 15 -16 18 -26 7z"/>
<path d="M9960 9329 c0 -5 5 -7 10 -4 6 3 10 8 10 11 0 2 -4 4 -10 4 -5 0 -10
-5 -10 -11z"/>
<path d="M9956 9172 c-2 -4 -1 -14 3 -21 6 -9 11 -10 15 -2 4 6 2 11 -4 11 -6
0 -8 5 -5 10 3 6 4 10 1 10 -3 0 -7 -4 -10 -8z"/>
<path d="M9907 9059 c4 -13 8 -18 11 -10 2 7 -1 18 -6 23 -8 8 -9 4 -5 -13z"/>
<path d="M1083 12419 c-2 -23 3 -25 10 -4 4 8 3 16 -1 19 -4 3 -9 -4 -9 -15z"/>
<path d="M1086 12343 c-6 -14 -5 -15 5 -6 7 7 10 15 7 18 -3 3 -9 -2 -12 -12z"/>
<path d="M1475 12210 c-3 -6 1 -7 9 -4 18 7 21 14 7 14 -6 0 -13 -4 -16 -10z"/>
<path d="M3855 12109 c-4 -6 -5 -12 -2 -15 2 -3 7 2 10 11 7 17 1 20 -8 4z"/>
<path d="M3735 12089 c-4 -5 -11 -6 -17 -3 -7 4 -8 2 -4 -4 4 -7 2 -12 -4 -12
-6 0 -9 -4 -5 -9 3 -5 1 -12 -5 -16 -5 -3 -10 -1 -10 6 0 20 -14 1 -15 -21 -1
-14 2 -17 10 -10 7 5 15 7 18 3 4 -3 7 -1 7 6 0 22 33 63 40 51 5 -8 10 -9 14
-2 3 5 -1 12 -9 16 -8 3 -17 1 -20 -5z"/>
<path d="M1503 11915 c0 -8 4 -12 9 -9 4 3 8 9 8 15 0 5 -4 9 -8 9 -5 0 -9 -7
-9 -15z"/>
<path d="M3765 11770 c-3 -5 -2 -10 4 -10 5 0 13 5 16 10 3 6 2 10 -4 10 -5 0
-13 -4 -16 -10z"/>
<path d="M3800 11689 c0 -5 5 -7 10 -4 6 3 10 8 10 11 0 2 -4 4 -10 4 -5 0
-10 -5 -10 -11z"/>
<path d="M921 11641 c-8 -5 -9 -11 -3 -15 5 -3 12 1 16 9 6 17 6 18 -13 6z"/>
<path d="M3705 11630 c-3 -6 1 -7 9 -4 18 7 21 14 7 14 -6 0 -13 -4 -16 -10z"/>
<path d="M810 11448 c-10 -21 -10 -21 3 -6 8 10 18 14 22 10 5 -4 5 -1 1 6
-10 17 -14 15 -26 -10z"/>
<path d="M8286 11444 c-22 -21 -20 -27 4 -14 11 6 20 15 20 20 0 14 -6 12 -24
-6z"/>
<path d="M3665 11442 c-11 -2 -24 -8 -30 -14 -9 -9 43 -1 54 8 8 7 -4 10 -24
6z"/>
<path d="M3725 11430 c-7 -12 38 -12 75 0 20 7 16 8 -22 9 -26 1 -50 -3 -53
-9z"/>
<path d="M8358 11433 c7 -3 16 -2 19 1 4 3 -2 6 -13 5 -11 0 -14 -3 -6 -6z"/>
<path d="M653 11394 c-19 -20 -16 -38 3 -20 8 9 14 20 12 25 -2 5 -9 3 -15 -5z"/>
<path d="M5583 11383 c-3 -10 -20 -34 -37 -54 -17 -20 -44 -56 -60 -80 -17
-23 -32 -37 -34 -31 -2 7 -8 9 -14 6 -5 -3 0 12 11 35 12 23 24 41 26 41 3 0
-2 -14 -10 -31 -9 -17 -15 -33 -12 -35 2 -2 12 13 23 33 10 21 28 45 39 55 19
17 19 17 -17 3 -41 -17 -44 -15 -27 18 10 19 8 18 -13 -4 -13 -14 -30 -40 -37
-58 -21 -49 -31 -46 -15 6 15 51 11 73 -6 27 -6 -16 -14 -38 -19 -49 -5 -11
-9 -33 -10 -49 -1 -16 -8 -40 -16 -53 -9 -13 -20 -35 -25 -51 l-10 -27 19 25
c11 13 17 28 15 32 -2 3 0 9 6 13 13 8 13 -16 0 -49 -5 -14 -6 -26 -1 -26 10
0 51 108 51 136 1 10 8 30 16 44 10 17 13 18 9 5 -16 -44 -17 -55 -7 -55 6 0
3 -14 -6 -32 -9 -18 -22 -49 -29 -68 -11 -34 -11 -34 5 -15 25 28 40 28 36 0
-2 -21 0 -23 16 -15 30 16 35 12 12 -10 -12 -11 -27 -20 -35 -20 -8 0 -19 -11
-25 -25 -7 -15 -17 -22 -26 -19 -13 5 -56 -31 -56 -48 0 -12 24 -10 39 5 11
10 12 6 6 -21 -7 -33 -6 -33 16 -22 l22 13 -21 -28 c-12 -15 -19 -31 -16 -36
3 -5 0 -9 -5 -9 -16 0 -13 -39 4 -56 11 -12 24 -13 48 -8 17 5 37 9 42 9 6 0
13 5 17 10 5 6 8 5 8 -4 0 -7 -13 -30 -30 -51 -36 -46 -41 -77 -10 -58 17 11
22 10 30 -2 17 -26 11 -30 -40 -30 -27 0 -50 -4 -50 -10 0 -5 32 -9 75 -9 63
1 78 4 99 24 24 22 25 24 6 30 -25 8 -15 34 18 46 14 5 22 12 19 15 -8 8 61
81 81 86 15 4 16 -2 14 -43 -5 -59 26 -129 65 -150 17 -9 58 -14 118 -14 79 0
96 3 115 20 34 31 50 70 51 125 2 54 1 54 61 7 44 -35 55 -61 36 -84 -12 -15
-10 -16 15 -9 15 3 27 2 27 -3 0 -17 30 -40 45 -35 24 10 17 24 -11 24 -14 0
-23 4 -19 10 8 13 36 1 64 -28 15 -15 26 -21 29 -14 2 8 12 7 32 -3 16 -8 42
-15 57 -15 l28 0 -32 16 c-18 9 -33 20 -33 25 0 12 3 11 36 -6 46 -24 58 -20
40 13 -8 15 -21 43 -30 63 -9 20 -39 56 -67 80 -28 24 -62 54 -75 67 -14 12
-32 22 -40 22 -8 0 -12 5 -9 10 3 6 0 10 -8 10 -8 0 -39 11 -69 25 -56 26
-232 65 -300 67 -21 1 -38 5 -38 9 0 5 -6 6 -14 3 -7 -3 -16 1 -19 9 -4 11 1
14 16 11 16 -3 15 -1 -5 8 -16 7 -28 18 -28 26 0 7 -5 10 -10 7 -6 -3 -17 0
-25 8 -13 13 -12 16 3 23 9 4 31 8 47 9 17 1 50 5 75 9 33 6 41 5 30 -3 -12
-9 -11 -11 8 -11 12 0 22 4 22 9 0 11 59 33 71 25 5 -3 19 1 31 7 13 7 54 13
93 14 38 1 97 5 130 9 43 4 54 3 40 -4 -17 -8 -14 -10 15 -8 55 2 72 -1 65
-12 -4 -6 14 -10 47 -11 42 -1 48 -3 28 -9 -23 -7 -23 -8 9 -9 40 -1 36 -10
-11 -21 l-33 -8 40 -1 c30 -1 36 -4 25 -11 -12 -8 -10 -10 10 -9 14 1 36 4 50
8 l25 7 -24 13 c-19 10 -21 15 -10 22 8 5 10 9 4 9 -5 0 -3 5 5 10 12 8 9 10
-12 10 -16 0 -28 4 -28 10 0 5 3 9 8 9 19 -3 25 2 12 11 -11 8 -7 9 15 4 45
-10 30 2 -63 53 -40 22 -96 28 -85 9 4 -5 -1 -7 -10 -3 -10 3 -17 2 -17 -3 0
-6 5 -10 10 -10 6 0 10 -4 10 -10 0 -15 -53 -12 -91 5 l-34 14 33 1 c43 0 33
16 -15 23 -21 3 -54 9 -73 14 -35 9 -35 9 -8 16 24 6 51 4 116 -9 15 -3 21 -1
17 6 -3 5 -24 10 -45 10 -21 0 -42 5 -45 10 -4 6 -12 10 -18 9 -7 -2 -24 3
-39 11 -23 11 -31 10 -54 -5 -14 -9 -23 -12 -20 -6 4 7 -1 11 -13 11 -12 0
-21 -5 -21 -11 0 -7 -10 -5 -25 5 -13 9 -28 16 -32 16 -4 0 -1 -5 7 -10 13 -9
13 -10 0 -10 -8 0 -26 -3 -40 -6 -25 -5 -25 -5 -5 11 19 16 14 16 -73 10 -62
-4 -92 -3 -88 4 4 6 -9 4 -28 -4 -20 -8 -45 -15 -56 -15 -12 0 -19 -4 -16 -9
3 -5 -10 -18 -29 -30 -19 -11 -35 -17 -35 -12 0 5 13 15 29 23 19 9 27 18 22
26 -5 9 -20 3 -55 -18 -44 -29 -50 -26 -21 10 13 16 26 60 19 60 -3 0 -7 -8
-11 -17z m384 -59 c-3 -3 -12 -4 -19 -1 -8 3 -5 6 6 6 11 1 17 -2 13 -5z m413
-58 c0 -9 -30 -14 -35 -6 -4 6 3 10 14 10 12 0 21 -2 21 -4z m71 -34 c-7 -2
-18 1 -23 6 -8 8 -4 9 13 5 13 -4 18 -8 10 -11z m-154 -8 c-3 -3 -12 -4 -19
-1 -8 3 -5 6 6 6 11 1 17 -2 13 -5z m-204 -21 c-7 -2 -19 -2 -25 0 -7 3 -2 5
12 5 14 0 19 -2 13 -5z m280 0 c-7 -2 -19 -2 -25 0 -7 3 -2 5 12 5 14 0 19 -2
13 -5z m-933 -173 c-8 -5 -19 -10 -25 -10 -5 0 -3 5 5 10 8 5 20 10 25 10 6 0
3 -5 -5 -10z m630 -88 c101 -43 208 -133 251 -214 18 -34 -70 13 -106 57 -84
103 -218 159 -420 176 -45 4 65 16 130 14 53 -2 89 -10 145 -33z m-583 22 c-3
-3 -12 -4 -19 -1 -8 3 -5 6 6 6 11 1 17 -2 13 -5z m-37 -8 c0 -2 -7 -6 -15
-10 -8 -3 -15 -1 -15 4 0 6 7 10 15 10 8 0 15 -2 15 -4z m463 -103 c4 12 11
15 19 10 7 -4 18 -8 23 -8 6 0 10 -11 10 -25 0 -22 -4 -24 -52 -26 l-53 -2 0
36 c0 37 14 35 23 -3 3 -13 5 -7 7 15 2 32 3 33 9 10 6 -22 8 -23 14 -7z
m-377 -128 c0 -22 -5 -35 -13 -35 -7 0 -13 -5 -13 -11 0 -5 -5 -7 -11 -3 -8 4
-7 9 2 14 9 6 10 12 1 22 -13 16 1 44 17 34 6 -4 11 -2 11 3 0 6 1 11 3 11 2
0 3 -16 3 -35z"/>
<path d="M1560 11370 c0 -5 5 -10 11 -10 5 0 7 5 4 10 -3 6 -8 10 -11 10 -2 0
-4 -4 -4 -10z"/>
<path d="M5486 11344 c-5 -14 -4 -15 9 -4 17 14 19 20 6 20 -5 0 -12 -7 -15
-16z"/>
<path d="M5335 11277 c-12 -26 -20 -34 -26 -26 -5 8 -9 2 -12 -17 -4 -27 -4
-27 -6 6 -3 72 -16 55 -17 -24 -1 -55 1 -71 6 -51 4 17 8 22 9 13 0 -10 6 -18
11 -18 6 0 8 -11 4 -27 -5 -23 -4 -26 6 -16 8 7 14 37 15 68 1 31 6 59 10 63
4 4 5 -3 2 -16 -3 -12 -1 -20 4 -17 10 7 23 69 17 87 -3 7 -13 -4 -23 -25z"/>
<path d="M4591 11254 c0 -11 3 -14 6 -6 3 7 2 16 -1 19 -3 4 -6 -2 -5 -13z"/>
<path d="M553 11205 c0 -11 4 -12 14 -4 7 6 13 13 13 15 0 2 -6 4 -13 4 -8 0
-14 -7 -14 -15z"/>
<path d="M6545 11150 c3 -5 11 -10 16 -10 6 0 7 5 4 10 -3 6 -11 10 -16 10 -6
0 -7 -4 -4 -10z"/>
<path d="M6490 11080 c0 -13 11 -13 30 0 12 8 11 10 -7 10 -13 0 -23 -4 -23
-10z"/>
<path d="M6518 11053 c23 -5 31 -23 10 -23 -6 0 -9 -2 -6 -5 4 -5 78 22 78 28
0 1 -24 3 -53 3 -28 1 -42 0 -29 -3z"/>
<path d="M7903 10965 c0 -8 4 -15 9 -15 4 0 8 7 8 15 0 8 -4 15 -8 15 -5 0 -9
-7 -9 -15z"/>
<path d="M7365 10800 c-11 -4 -29 -17 -39 -29 -19 -21 -19 -21 4 -46 13 -14
29 -25 35 -25 7 0 20 -9 30 -20 18 -20 36 -27 33 -12 -1 4 4 20 11 37 7 16 10
39 6 52 -7 29 -53 53 -80 43z"/>
<path d="M4185 10625 c-16 -8 -23 -14 -14 -15 8 0 24 7 35 15 23 18 18 18 -21
0z"/>
<path d="M5750 10614 c0 -8 5 -12 10 -9 6 3 10 10 10 16 0 5 -4 9 -10 9 -5 0
-10 -7 -10 -16z"/>
<path d="M5788 10587 c-3 -19 -2 -25 4 -19 6 6 8 18 6 28 -3 14 -5 12 -10 -9z"/>
<path d="M5842 10590 c7 -10 14 -18 15 -16 6 6 -9 36 -18 36 -5 0 -4 -9 3 -20z"/>
<path d="M5680 10586 c28 -17 50 -21 35 -7 -6 5 -21 12 -35 15 l-25 7 25 -15z"/>
<path d="M5566 10568 c3 -5 10 -6 15 -3 13 9 11 12 -6 12 -8 0 -12 -4 -9 -9z"/>
<path d="M5535 10550 c-4 -6 0 -10 9 -10 8 0 17 -6 19 -12 4 -8 6 -7 6 3 1 19
-25 33 -34 19z"/>
<path d="M7807 10504 c4 -12 3 -15 -5 -10 -7 4 -12 3 -12 -2 0 -6 6 -12 13
-15 15 -6 21 29 6 38 -5 4 -6 -2 -2 -11z"/>
<path d="M305 10490 c-3 -5 -1 -10 4 -10 6 0 11 5 11 10 0 6 -2 10 -4 10 -3 0
-8 -4 -11 -10z"/>
<path d="M4160 10476 c0 -7 -10 -20 -21 -28 -21 -14 -21 -14 4 -13 14 1 39 12
54 26 16 13 24 21 19 17 -15 -12 -48 -10 -41 2 3 6 1 10 -4 10 -6 0 -11 -6
-11 -14z"/>
<path d="M313 10445 c-3 -9 -3 -18 -1 -21 3 -3 8 4 11 16 6 23 -1 27 -10 5z"/>
<path d="M5735 10440 c27 -12 43 -12 25 0 -8 5 -22 9 -30 9 -10 0 -8 -3 5 -9z"/>
<path d="M7820 10430 c-8 -5 -12 -12 -9 -15 4 -3 12 1 19 10 14 17 11 19 -10
5z"/>
<path d="M3464 10414 c-18 -14 -18 -15 4 -4 12 6 22 13 22 15 0 8 -5 6 -26
-11z"/>
<path d="M4327 10395 c3 -8 9 -12 14 -9 12 7 11 11 -5 17 -10 4 -13 1 -9 -8z"/>
<path d="M7818 10393 c7 -3 16 -2 19 1 4 3 -2 6 -13 5 -11 0 -14 -3 -6 -6z"/>
<path d="M294 10360 c0 -16 3 -27 8 -24 5 3 6 9 3 14 -3 4 0 10 6 12 7 2 6 8
-3 16 -12 9 -14 6 -14 -18z"/>
<path d="M7017 10332 c-24 -27 -21 -74 6 -100 13 -12 28 -22 34 -22 26 0 31
83 7 118 -18 27 -26 27 -47 4z"/>
<path d="M263 10295 c-3 -9 -3 -19 1 -22 3 -4 6 1 6 11 0 10 5 14 12 10 7 -4
8 -3 4 4 -10 16 -15 15 -23 -3z"/>
<path d="M7796 10283 c-6 -14 -5 -15 5 -6 7 7 10 15 7 18 -3 3 -9 -2 -12 -12z"/>
<path d="M237 10189 c7 -7 15 -10 18 -7 3 3 -2 9 -12 12 -14 6 -15 5 -6 -5z"/>
<path d="M1698 10163 c7 -3 16 -2 19 1 4 3 -2 6 -13 5 -11 0 -14 -3 -6 -6z"/>
<path d="M7820 10116 c0 -8 4 -17 9 -21 6 -3 9 4 8 15 -1 23 -17 28 -17 6z"/>
<path d="M7770 10091 c0 -10 50 -25 58 -17 2 3 -7 10 -22 16 -33 12 -36 12
-36 1z"/>
<path d="M7736 10082 c-3 -5 4 -18 17 -28 21 -19 21 -19 7 0 -8 11 -13 21 -12
23 2 3 1 7 -1 9 -3 3 -8 1 -11 -4z"/>
<path d="M801 10064 c0 -11 3 -14 6 -6 3 7 2 16 -1 19 -3 4 -6 -2 -5 -13z"/>
<path d="M7803 10039 c13 -20 23 -24 31 -11 2 4 -6 12 -19 18 -22 11 -23 10
-12 -7z"/>
<path d="M7726 10037 c3 -8 11 -14 19 -14 11 0 12 4 4 14 -6 7 -15 13 -20 13
-5 0 -6 -6 -3 -13z"/>
<path d="M7712 9995 c-35 -18 -34 -21 3 -17 19 2 35 8 35 13 0 14 -15 16 -38
4z"/>
<path d="M7612 9993 c-6 -2 -10 -9 -7 -14 3 -5 1 -17 -5 -28 -7 -13 -7 -22 0
-26 5 -3 10 1 10 9 0 9 3 16 8 17 4 0 14 2 23 4 12 2 15 -3 12 -19 -5 -21 -5
-21 10 -1 14 18 13 21 -7 42 -22 24 -24 24 -44 16z"/>
<path d="M7783 9985 c0 -8 4 -12 8 -9 4 2 10 -2 12 -8 4 -8 6 -9 6 -2 1 6 -5
17 -12 23 -10 8 -14 7 -14 -4z"/>
<path d="M7820 9969 c0 -5 5 -7 10 -4 6 3 10 8 10 11 0 2 -4 4 -10 4 -5 0 -10
-5 -10 -11z"/>
<path d="M150 9962 c0 -5 7 -15 15 -22 8 -7 15 -9 15 -6 0 4 -7 14 -15 22 -8
9 -15 11 -15 6z"/>
<path d="M4290 9960 c0 -5 5 -10 11 -10 5 0 7 5 4 10 -3 6 -8 10 -11 10 -2 0
-4 -4 -4 -10z"/>
<path d="M7691 9948 c-1 -10 3 -18 8 -18 5 0 15 8 22 18 13 15 12 16 -3 4 -13
-10 -17 -10 -21 0 -4 8 -6 7 -6 -4z"/>
<path d="M7625 9930 c-3 -11 -11 -20 -16 -20 -5 0 -9 -10 -9 -22 l0 -21 20 23
c11 13 20 31 20 42 0 24 -7 23 -15 -2z"/>
<path d="M7786 9921 c8 -8 53 -7 48 1 -3 4 -16 7 -29 6 -13 -1 -22 -4 -19 -7z"/>
<path d="M7655 9901 c-3 -5 -2 -12 3 -15 5 -3 9 1 9 9 0 17 -3 19 -12 6z"/>
<path d="M135 9880 c-3 -5 -1 -10 4 -10 6 0 11 5 11 10 0 6 -2 10 -4 10 -3 0
-8 -4 -11 -10z"/>
<path d="M7790 9881 c0 -7 -5 -9 -12 -5 -7 5 -8 3 -3 -5 5 -9 10 -10 18 -2 6
6 8 14 4 18 -4 3 -7 1 -7 -6z"/>
<path d="M7466 9845 c-3 -8 -1 -15 4 -15 6 0 10 7 10 15 0 8 -2 15 -4 15 -2 0
-6 -7 -10 -15z"/>
<path d="M7650 9846 c0 -2 7 -7 16 -10 8 -3 12 -2 9 4 -6 10 -25 14 -25 6z"/>
<path d="M7620 9831 c0 -6 4 -13 10 -16 6 -3 7 1 4 9 -7 18 -14 21 -14 7z"/>
<path d="M3456 9805 c-3 -8 -1 -15 4 -15 6 0 10 7 10 15 0 8 -2 15 -4 15 -2 0
-6 -7 -10 -15z"/>
<path d="M7480 9756 c0 -2 8 -10 18 -17 15 -13 16 -12 3 4 -13 16 -21 21 -21
13z"/>
<path d="M7970 9619 c0 -5 5 -7 10 -4 6 3 10 8 10 11 0 2 -4 4 -10 4 -5 0 -10
-5 -10 -11z"/>
<path d="M5213 9579 c-35 -13 -66 -35 -93 -66 -46 -53 -52 -73 -12 -43 15 11
41 21 57 23 17 1 44 10 60 18 49 25 133 13 121 -17 -6 -15 -4 -15 16 -2 27 18
33 72 11 93 -20 21 -98 18 -160 -6z m167 -59 c0 -5 -4 -10 -10 -10 -5 0 -10 5
-10 10 0 6 5 10 10 10 6 0 10 -4 10 -10z"/>
<path d="M7446 9521 c-12 -5 -15 -10 -9 -14 6 -4 16 0 23 8 14 17 13 17 -14 6z"/>
<path d="M7954 9521 c4 -5 1 -12 -4 -14 -6 -3 -5 -4 2 -3 15 3 23 26 8 26 -6
0 -9 -4 -6 -9z"/>
<path d="M8045 9521 c-3 -5 -2 -12 3 -15 5 -3 9 1 9 9 0 17 -3 19 -12 6z"/>
<path d="M7965 9481 c-3 -5 -2 -12 3 -15 5 -3 9 1 9 9 0 17 -3 19 -12 6z"/>
<path d="M7993 9477 c3 -9 0 -23 -9 -32 -9 -8 -11 -15 -6 -15 5 0 16 8 25 18
14 15 14 18 -1 32 -14 13 -15 12 -9 -3z"/>
<path d="M3937 9463 c-9 -2 -15 -9 -12 -14 9 -14 22 -11 29 6 3 8 4 14 3 14
-1 -1 -10 -3 -20 -6z"/>
<path d="M7951 9434 c0 -11 3 -14 6 -6 3 7 2 16 -1 19 -3 4 -6 -2 -5 -13z"/>
<path d="M8035 9430 c-3 -5 1 -10 9 -10 9 0 16 5 16 10 0 6 -4 10 -9 10 -6 0
-13 -4 -16 -10z"/>
<path d="M7445 9420 c3 -5 11 -10 16 -10 6 0 7 5 4 10 -3 6 -11 10 -16 10 -6
0 -7 -4 -4 -10z"/>
<path d="M5925 9409 c4 -6 37 -30 74 -54 67 -43 114 -91 145 -152 9 -18 19
-33 21 -33 7 0 -7 62 -20 86 -16 31 -73 94 -85 94 -5 0 -15 9 -22 20 -8 12
-28 23 -51 27 -20 3 -40 10 -43 14 -3 5 -10 9 -15 9 -6 0 -7 -5 -4 -11z"/>
<path d="M7473 9295 c0 -8 4 -15 9 -15 4 0 8 4 8 9 0 6 -4 12 -8 15 -5 3 -9
-1 -9 -9z"/>
<path d="M8210 9270 c0 -5 7 -7 15 -4 8 4 15 8 15 10 0 2 -7 4 -15 4 -8 0 -15
-4 -15 -10z"/>
<path d="M7430 9229 c0 -5 5 -7 10 -4 6 3 10 8 10 11 0 2 -4 4 -10 4 -5 0 -10
-5 -10 -11z"/>
<path d="M4920 9169 c0 -5 5 -7 10 -4 6 3 10 8 10 11 0 2 -4 4 -10 4 -5 0 -10
-5 -10 -11z"/>
<path d="M265 9160 c3 -5 8 -10 11 -10 2 0 4 5 4 10 0 6 -5 10 -11 10 -5 0 -7
-4 -4 -10z"/>
<path d="M4766 9143 c-6 -14 -5 -15 5 -6 7 7 10 15 7 18 -3 3 -9 -2 -12 -12z"/>
<path d="M5765 9029 c-4 -6 -5 -12 -2 -15 2 -3 7 2 10 11 7 17 1 20 -8 4z"/>
<path d="M5805 9020 c-3 -5 -2 -10 4 -10 5 0 13 5 16 10 3 6 2 10 -4 10 -5 0
-13 -4 -16 -10z"/>
<path d="M7436 8986 c8 -20 28 -26 45 -14 11 8 11 9 -3 5 -9 -3 -19 1 -22 9
-3 8 -10 14 -15 14 -6 0 -8 -6 -5 -14z"/>
<path d="M80 8960 c0 -5 5 -10 10 -10 6 0 10 5 10 10 0 6 -4 10 -10 10 -5 0
-10 -4 -10 -10z"/>
<path d="M7461 8900 c0 -8 4 -24 9 -35 5 -13 9 -14 9 -5 0 8 -4 24 -9 35 -5
13 -9 14 -9 5z"/>
<path d="M5428 8893 c7 -3 16 -2 19 1 4 3 -2 6 -13 5 -11 0 -14 -3 -6 -6z"/>
<path d="M7508 8813 c7 -3 16 -2 19 1 4 3 -2 6 -13 5 -11 0 -14 -3 -6 -6z"/>
<path d="M7543 8796 c0 -7 6 -13 14 -13 7 0 13 4 13 8 0 4 -6 9 -13 12 -8 3
-14 0 -14 -7z"/>
<path d="M7710 8769 c0 -5 5 -7 10 -4 6 3 10 8 10 11 0 2 -4 4 -10 4 -5 0 -10
-5 -10 -11z"/>
<path d="M7676 8745 c4 -8 12 -15 20 -15 20 0 17 7 -6 20 -16 9 -18 8 -14 -5z"/>
<path d="M1807 8673 c-4 -3 -7 -11 -7 -17 0 -6 5 -5 12 2 6 6 9 14 7 17 -3 3
-9 2 -12 -2z"/>
<path d="M4871 8618 c-1 -38 4 -43 33 -32 23 9 20 27 -3 19 -16 -5 -20 0 -24
22 -3 23 -4 21 -6 -9z"/>
<path d="M4801 8604 c0 -11 3 -14 6 -6 3 7 2 16 -1 19 -3 4 -6 -2 -5 -13z"/>
<path d="M4745 8590 c-3 -5 -1 -10 4 -10 6 0 11 5 11 10 0 6 -2 10 -4 10 -3 0
-8 -4 -11 -10z"/>
<path d="M4050 8432 c0 -8 9 -16 20 -19 11 -3 20 -10 20 -15 0 -5 -5 -6 -12
-2 -7 4 -8 3 -4 -4 4 -7 2 -12 -5 -12 -7 0 -9 -3 -6 -7 4 -3 15 1 24 9 10 9
26 14 35 13 12 -2 15 2 10 13 -3 10 -7 12 -10 4 -2 -8 -10 -7 -28 4 -13 9 -24
12 -24 8 0 -5 -5 -2 -10 6 -7 11 -10 12 -10 2z"/>
<path d="M4525 8420 c-3 -5 -1 -10 4 -10 6 0 11 5 11 10 0 6 -2 10 -4 10 -3 0
-8 -4 -11 -10z"/>
<path d="M4794 8412 c-6 -4 -15 -18 -19 -31 -5 -18 -9 -20 -16 -10 -5 8 -9 10
-10 4 -2 -29 -9 -49 -19 -59 -9 -8 -10 -3 -4 19 10 45 10 47 -4 52 -9 4 -13
-2 -12 -18 3 -37 1 -45 -10 -29 -5 8 -12 11 -17 7 -4 -4 -2 -17 5 -27 7 -11
12 -30 13 -42 l0 -23 9 23 c10 22 30 31 30 11 0 -6 -5 -20 -11 -32 -8 -16 -3
-13 16 8 l26 30 -6 -27 c-3 -16 -1 -28 5 -28 5 0 10 6 10 14 0 8 11 17 24 20
26 6 41 32 26 41 -6 4 -10 -1 -10 -9 0 -10 -6 -13 -15 -10 -19 8 -20 34 -1 34
14 0 26 20 26 43 0 6 -7 2 -15 -9 -13 -17 -14 -16 -8 19 6 39 5 41 -13 29z
m-24 -77 c0 -8 -4 -15 -10 -15 -5 0 -7 7 -4 15 4 8 8 15 10 15 2 0 4 -7 4 -15z"/>
<path d="M4200 8400 c0 -5 5 -10 10 -10 6 0 10 5 10 10 0 6 -4 10 -10 10 -5 0
-10 -4 -10 -10z"/>
<path d="M4641 8374 c-17 -38 -6 -42 14 -5 8 17 12 31 7 31 -5 0 -14 -12 -21
-26z"/>
<path d="M4171 8383 c11 -2 15 -11 12 -22 -6 -24 11 -35 26 -17 14 17 -11 47
-37 45 -15 -1 -15 -2 -1 -6z m39 -27 c0 -3 -4 -8 -10 -11 -5 -3 -10 -1 -10 4
0 6 5 11 10 11 6 0 10 -2 10 -4z"/>
<path d="M4130 8371 c0 -7 -7 -11 -14 -8 -10 4 -13 1 -9 -9 5 -14 7 -14 21 0
9 9 13 19 9 22 -4 4 -7 2 -7 -5z"/>
<path d="M4854 8315 c-1 -25 3 -45 7 -45 11 0 22 38 14 49 -3 5 -1 12 5 16 5
3 10 12 10 18 0 7 -4 6 -10 -3 -8 -12 -12 -12 -18 -3 -5 8 -8 -6 -8 -32z"/>
<path d="M4905 8332 c-5 -4 -11 -23 -12 -42 l-2 -35 13 30 14 30 5 -25 c2 -16
4 -12 4 13 0 37 -4 43 -22 29z"/>
<path d="M4983 8333 c13 -3 16 -11 11 -31 -4 -23 -4 -24 6 -9 15 23 6 47 -17
46 -17 -1 -17 -2 0 -6z"/>
<path d="M4066 8315 c4 -8 8 -15 10 -15 2 0 4 7 4 15 0 8 -4 15 -10 15 -5 0
-7 -7 -4 -15z"/>
<path d="M4665 8299 c-4 -6 -5 -12 -2 -15 2 -3 7 2 10 11 7 17 1 20 -8 4z"/>
<path d="M4967 8279 c4 -13 8 -18 11 -10 2 7 -1 18 -6 23 -8 8 -9 4 -5 -13z"/>
<path d="M4130 8091 c0 -6 4 -13 10 -16 6 -3 7 1 4 9 -7 18 -14 21 -14 7z"/>
<path d="M4279 7863 c-13 -16 -12 -17 4 -4 9 7 17 15 17 17 0 8 -8 3 -21 -13z"/>
<path d="M4480 7855 c0 -8 4 -15 10 -15 5 0 7 7 4 15 -4 8 -8 15 -10 15 -2 0
-4 -7 -4 -15z"/>
<path d="M4470 7820 c0 -5 -6 -7 -14 -4 -8 3 -17 1 -21 -5 -3 -6 -2 -11 4 -11
6 0 7 -8 4 -17 -6 -16 -5 -16 11 -4 23 19 40 51 26 51 -5 0 -10 -4 -10 -10z"/>
<path d="M5560 7821 c0 -6 4 -13 10 -16 6 -3 7 1 4 9 -7 18 -14 21 -14 7z"/>
<path d="M4590 7791 c-5 -11 -18 -27 -27 -37 -10 -9 -12 -15 -5 -13 13 4 58
69 48 69 -3 0 -10 -9 -16 -19z"/>
<path d="M5395 7770 c3 -5 8 -10 11 -10 2 0 4 5 4 10 0 6 -5 10 -11 10 -5 0
-7 -4 -4 -10z"/>
<path d="M5600 7756 c0 -2 8 -10 18 -17 15 -13 16 -12 3 4 -13 16 -21 21 -21
13z"/>
<path d="M5756 7747 c3 -10 9 -15 12 -12 3 3 0 11 -7 18 -10 9 -11 8 -5 -6z"/>
<path d="M5450 7732 c0 -12 19 -26 26 -19 2 2 -2 10 -11 17 -9 8 -15 8 -15 2z"/>
<path d="M5638 7724 c-8 -8 2 -35 19 -53 21 -21 23 -9 4 27 -9 18 -20 30 -23
26z"/>
<path d="M4887 7703 c-4 -3 -7 -11 -7 -17 0 -6 5 -5 12 2 6 6 9 14 7 17 -3 3
-9 2 -12 -2z"/>
<path d="M5077 7670 c-3 -11 -1 -20 4 -20 5 0 9 9 9 20 0 11 -2 20 -4 20 -2 0
-6 -9 -9 -20z"/>
<path d="M4630 7665 c-17 -21 -8 -28 15 -11 11 8 14 15 8 19 -6 4 -16 0 -23
-8z"/>
<path d="M5431 7671 c-10 -6 -10 -10 -1 -16 13 -8 24 -1 19 14 -3 6 -10 7 -18
2z"/>
<path d="M4771 7654 c0 -11 3 -14 6 -6 3 7 2 16 -1 19 -3 4 -6 -2 -5 -13z"/>
<path d="M4537 7643 c-4 -3 -7 -11 -7 -17 0 -6 5 -5 12 2 6 6 9 14 7 17 -3 3
-9 2 -12 -2z"/>
<path d="M5057 7634 c-4 -4 -7 -14 -7 -23 0 -11 3 -12 11 -4 6 6 10 16 7 23
-2 6 -7 8 -11 4z"/>
<path d="M5287 7615 c-4 -8 -2 -17 3 -20 6 -4 10 -4 10 -1 0 2 3 11 6 20 3 9
2 16 -4 16 -5 0 -12 -7 -15 -15z"/>
<path d="M6025 6903 c-86 -96 -315 -323 -327 -323 -5 0 -8 -4 -8 -10 0 -9 -47
-62 -167 -188 -29 -31 -53 -58 -53 -62 0 -3 -29 -36 -65 -73 -35 -37 -61 -67
-57 -67 4 0 -8 -10 -27 -21 -19 -12 -67 -54 -105 -94 -39 -40 -81 -75 -93 -79
-13 -4 -23 -12 -23 -17 0 -5 -6 -9 -14 -9 -7 0 -25 -9 -38 -20 -14 -10 -28
-16 -32 -13 -4 4 -9 -3 -13 -15 -3 -12 -10 -22 -15 -22 -5 0 -6 4 -3 10 3 6
-1 7 -9 4 -9 -3 -16 -10 -16 -16 0 -5 -5 -6 -12 -2 -6 4 -8 3 -5 -3 10 -16
-25 -47 -76 -68 -26 -10 -47 -23 -47 -27 0 -4 -7 -5 -15 -2 -8 4 -21 1 -28 -5
-7 -6 -30 -9 -50 -8 -31 3 -35 1 -27 -14 7 -12 5 -19 -6 -23 -22 -9 -24 -8
-24 11 0 20 -13 9 -16 -14 -2 -9 6 -23 16 -30 11 -8 17 -20 14 -27 -3 -8 0
-17 6 -21 8 -5 7 -11 -2 -23 -8 -9 -8 -13 -2 -9 7 4 15 -1 18 -10 4 -9 1 -20
-6 -24 -9 -6 -10 -11 -2 -19 15 -15 6 -58 -16 -73 -18 -12 -30 -40 -34 -81 -1
-12 -12 -34 -25 -47 -12 -13 -25 -37 -28 -52 -3 -15 -14 -32 -23 -37 -12 -7
-16 -17 -13 -31 5 -16 3 -20 -7 -14 -7 4 -15 3 -19 -3 -4 -8 -15 -4 -31 11
-76 69 -76 55 -2 -20 100 -100 169 -193 228 -306 l41 -78 50 55 c73 79 96 133
96 220 0 57 -6 87 -32 151 -26 64 -34 97 -37 165 -8 208 79 365 290 520 73 55
204 173 369 335 127 124 615 690 605 701 -3 3 -41 -35 -83 -83z"/>
<path d="M5490 6111 c0 -5 9 -11 21 -14 12 -3 18 -10 14 -16 -3 -6 0 -11 8
-11 16 0 31 27 19 33 -19 11 -62 16 -62 8z"/>
<path d="M3589 6101 c-14 -5 -51 -26 -83 -47 -79 -52 -152 -161 -197 -293 -24
-67 -25 -95 -4 -66 8 11 23 29 33 40 10 11 24 40 32 65 20 66 51 116 82 135
16 9 28 13 28 8 0 -4 5 -1 10 7 8 13 13 13 39 -3 33 -20 38 -16 39 32 0 18 6
39 13 45 9 8 10 8 5 -1 -8 -15 12 -17 32 -5 10 7 10 15 2 37 -8 20 -7 31 1 41
13 15 7 16 -32 5z"/>
<path d="M5796 5843 c-6 -14 -5 -15 5 -6 7 7 10 15 7 18 -3 3 -9 -2 -12 -12z"/>
<path d="M5279 5820 c-18 -15 -20 -19 -8 -20 9 0 24 9 34 20 23 26 4 26 -26 0z"/>
<path d="M4635 5762 c-13 -9 -17 -32 -6 -32 5 0 11 9 14 20 6 22 6 22 -8 12z"/>
<path d="M5665 3639 c-4 -6 -5 -12 -2 -15 2 -3 7 2 10 11 7 17 1 20 -8 4z"/>
<path d="M5639 3563 c-5 -14 -8 -30 -6 -36 1 -5 8 7 14 27 13 42 7 49 -8 9z"/>
<path d="M5616 3485 c-3 -9 -6 -22 -5 -28 0 -7 5 -1 10 12 5 13 8 26 5 28 -2
2 -6 -3 -10 -12z"/>
<path d="M5582 3385 c-6 -14 -8 -25 -3 -25 8 0 23 41 17 47 -1 2 -8 -8 -14
-22z"/>
<path d="M5569 3347 c-1 -4 -3 -10 -4 -14 -1 -5 -6 -23 -10 -40 -4 -18 -11
-33 -16 -33 -5 0 -9 -9 -9 -20 0 -11 -18 -74 -40 -141 -22 -67 -40 -127 -40
-133 0 -7 -9 -29 -20 -51 -11 -21 -18 -41 -15 -43 3 -3 1 -10 -3 -16 -5 -6
-17 -38 -28 -71 -10 -33 -21 -62 -24 -65 -3 -3 -6 -10 -7 -15 -1 -6 -4 -24 -8
-40 -11 -50 74 163 110 275 95 298 126 403 121 408 -3 3 -7 2 -7 -1z"/>
<path d="M5315 2590 c-3 -5 -1 -10 4 -10 6 0 11 5 11 10 0 6 -2 10 -4 10 -3 0
-8 -4 -11 -10z"/>
<path d="M5156 1934 c-4 -14 -5 -28 -3 -31 3 -2 8 8 11 23 4 14 5 28 3 31 -3
2 -8 -8 -11 -23z"/>
<path d="M5137 1876 c-4 -10 -7 -25 -6 -34 0 -11 4 -9 10 7 5 13 8 29 6 35 -2
5 -6 2 -10 -8z"/>
<path d="M5091 1704 c0 -11 3 -14 6 -6 3 7 2 16 -1 19 -3 4 -6 -2 -5 -13z"/>
<path d="M5073 1658 c0 -7 -4 -26 -7 -43 -5 -20 -4 -25 2 -15 14 23 23 70 14
70 -5 0 -9 -6 -9 -12z"/>
<path d="M5047 1569 c4 -13 8 -18 11 -10 2 7 -1 18 -6 23 -8 8 -9 4 -5 -13z"/>
<path d="M5036 1525 c-3 -9 -6 -26 -5 -38 1 -16 4 -12 10 12 10 34 6 55 -5 26z"/>
<path d="M5001 1389 c-7 -24 -17 -52 -22 -61 -5 -10 -9 -30 -8 -45 0 -17 10 2
24 52 14 44 23 84 22 89 -2 5 -9 -11 -16 -35z"/>
<path d="M3823 1130 c0 -25 2 -35 4 -22 2 12 2 32 0 45 -2 12 -4 2 -4 -23z"/>
<path d="M3801 803 c-7 -131 -14 -249 -16 -263 -11 -81 -15 -146 -21 -332 -6
-202 -5 -208 14 -208 18 0 20 10 26 178 9 269 19 862 14 862 -3 0 -10 -107
-17 -237z"/>
</g>
</svg>
